<svg xmlns="http://www.w3.org/2000/svg" width="1039" height="1040" viewBox="0 0 1039 1040" version="1.1"><path d="M 652.336 398 C 652.336 402.125, 652.513 403.813, 652.728 401.750 C 652.944 399.688, 652.944 396.313, 652.728 394.250 C 652.513 392.188, 652.336 393.875, 652.336 398 M 652.498 466.709 C 648.894 469.498, 604.782 490.713, 592 495.806 C 561.762 507.854, 536.516 512.963, 514.113 511.567 C 504.460 510.965, 501.009 510.417, 490.500 507.816 C 484.466 506.323, 465 497.950, 465 496.847 C 465 496.316, 464.520 496.179, 463.933 496.541 C 463.347 496.904, 463.095 497.428, 463.373 497.707 C 463.652 497.985, 463.465 498.728, 462.958 499.357 C 454.187 510.238, 446.648 519.995, 426.552 546.473 C 414.703 562.084, 399.108 575, 392.106 575 C 387.296 575, 391.285 576.468, 402.192 578.712 C 413.485 581.035, 416 582.122, 416 584.681 C 416 585.472, 416.400 585.871, 416.890 585.568 C 417.379 585.265, 421.478 589.681, 425.999 595.380 C 430.724 601.337, 434.901 605.690, 435.825 605.621 C 436.857 605.543, 437.639 606.573, 438.013 608.500 C 438.450 610.752, 438.752 609.756, 439.226 604.500 C 439.979 596.155, 443.406 584.930, 449.456 570.992 C 455.874 556.205, 456.552 556.055, 453.923 570 C 446.798 607.807, 445.271 619.431, 447.267 620.665 C 447.872 621.039, 448.010 620.825, 447.595 620.155 C 446.126 617.778, 447.710 619.116, 449.947 622.143 C 451.225 623.871, 451.647 624.965, 450.885 624.574 C 450.123 624.183, 451.040 625.229, 452.923 626.899 L 456.346 629.935 464.923 621.133 C 489.323 596.093, 522.631 578.454, 556.976 572.382 C 564.389 571.072, 571.701 570, 573.226 570 C 574.752 570, 576 569.523, 576 568.941 C 576 568.359, 575.569 568.149, 575.042 568.474 C 574.514 568.800, 574.903 566.914, 575.905 564.283 C 584.640 541.344, 586.765 536.612, 591.525 529.500 C 597.610 520.408, 604.623 513.147, 610.558 509.793 C 612.790 508.532, 617.088 505.856, 620.109 503.846 C 641.988 489.295, 661.689 491.606, 673.894 510.154 C 680.562 520.287, 683.729 527.732, 686.379 539.500 C 687.742 545.550, 688.889 549.397, 688.928 548.050 C 689.065 543.383, 690.891 547.415, 692.077 555.003 C 694.380 569.725, 691.235 591.671, 684.711 606.410 C 676.396 625.195, 667.198 637.173, 652 649.007 C 646.607 653.206, 633.801 660, 631.278 660 C 629.135 660, 629.854 661.746, 632.250 662.359 C 633.487 662.675, 638.671 665.638, 643.768 668.942 C 652.077 674.328, 653.014 675.240, 652.822 677.753 C 652.704 679.295, 652.999 681.219, 653.476 682.029 C 653.992 682.903, 653.472 682.735, 652.195 681.616 C 651.014 680.580, 650.257 679.394, 650.513 678.980 C 650.769 678.565, 650.308 677.671, 649.489 676.991 C 648.670 676.311, 648 676.067, 648 676.449 C 648 676.831, 647.293 676.436, 646.429 675.571 C 645.564 674.707, 644.450 674, 643.952 674 C 643.454 674, 646.861 677.662, 651.523 682.138 C 656.186 686.614, 660 690.656, 660 691.120 C 660 691.585, 661.779 694.872, 663.954 698.425 C 670.391 708.942, 673.120 714.859, 677.035 726.792 C 679.073 733.003, 681.073 738.096, 681.481 738.109 C 682.840 738.152, 691.799 722.069, 694.781 714.232 C 701.089 697.656, 705.385 679.540, 704.386 673.727 C 704.005 671.506, 704.132 670.924, 704.793 671.861 C 706.311 674.009, 706.925 667.843, 707.618 643.500 C 708.295 619.668, 707.401 605.567, 703.993 586.336 C 696.739 545.411, 689.659 524.083, 674.421 497.247 C 668.486 486.796, 656.145 466.865, 654.660 465.332 C 654.570 465.239, 653.598 465.859, 652.498 466.709 M 482 474.961 C 488.113 478.250, 491.008 478.920, 489.081 476.597 C 488.186 475.520, 488.216 475.091, 489.208 474.748 C 490.519 474.296, 481.322 472, 478.201 472 C 477.265 472, 478.975 473.332, 482 474.961 M 507.750 477.737 C 510.637 477.939, 515.362 477.939, 518.250 477.737 C 521.138 477.535, 518.775 477.370, 513 477.370 C 507.225 477.370, 504.863 477.535, 507.750 477.737 M 325 667.441 C 325 669.573, 326.516 670.134, 329.158 668.981 C 331.427 667.989, 331.415 667.969, 328.750 668.340 C 325.967 668.727, 324.950 667.590, 327.250 666.662 C 327.997 666.361, 327.795 666.126, 326.750 666.079 C 325.788 666.036, 325 666.648, 325 667.441 M 596.280 816.736 C 598.909 816.943, 602.959 816.940, 605.280 816.731 C 607.601 816.521, 605.450 816.352, 600.500 816.355 C 595.550 816.358, 593.651 816.530, 596.280 816.736 M 454.750 817.732 C 457.087 817.943, 460.913 817.943, 463.250 817.732 C 465.587 817.522, 463.675 817.349, 459 817.349 C 454.325 817.349, 452.413 817.522, 454.750 817.732" stroke="none" fill="#b7ddd7" fill-rule="evenodd"/><path d="M 530.500 190.632 C 494.683 195.921, 464.103 208.901, 439 229.470 C 421.553 243.767, 405.496 262.911, 395.578 281.240 C 390.493 290.638, 383.560 310.750, 382.045 320.500 C 380.440 330.827, 379.843 351.041, 380.805 362.500 C 381.727 373.482, 381.724 373.508, 378.911 378.500 C 370.936 392.650, 371.277 412.424, 379.798 429.928 C 384.855 440.316, 396.817 452.441, 406.500 456.996 C 416.355 461.631, 425.235 462.196, 433.804 458.735 C 437.212 457.359, 440 456.610, 440 457.072 C 440 457.534, 443.664 460.970, 448.143 464.706 C 462.230 476.460, 464.247 478.631, 463.475 481.212 C 461.038 489.368, 452.696 502.386, 442.072 514.611 C 440.108 516.871, 434.225 524.721, 429 532.054 C 423.775 539.387, 415.675 549.258, 411 553.990 C 401.615 563.488, 395.487 567.064, 384.214 569.619 C 369.983 572.844, 361.729 575.405, 359.656 577.239 L 357.500 579.147 361 578.527 C 362.925 578.187, 370.800 577.025, 378.500 575.946 C 402.477 572.585, 408.997 568.096, 429.990 540.500 C 436.265 532.250, 445.524 520.325, 450.565 514 C 455.606 507.675, 460.962 500.523, 462.468 498.106 C 465.588 493.101, 469 483.821, 469 480.343 C 469 477.343, 469.953 477.393, 479.559 480.898 C 487.013 483.619, 490.728 484.365, 495.500 484.101 C 496.600 484.040, 492.100 481.356, 485.500 478.135 C 458.739 465.077, 438.772 448.539, 430.336 432.445 C 422.224 416.969, 417.660 392.317, 419.815 375.622 C 421.869 359.706, 435.142 330.391, 446.493 316.696 C 454.051 307.579, 464.517 299.761, 468.250 300.446 C 470.838 300.920, 471.005 300.731, 471.080 297.225 C 471.189 292.222, 473.234 284.735, 474.616 284.286 C 475.282 284.069, 475.939 285.770, 476.248 288.511 C 476.533 291.034, 477.005 293.338, 477.297 293.630 C 478.391 294.725, 481.813 291.927, 485.970 286.539 C 489.808 281.564, 490.394 281.156, 491.510 282.682 C 492.684 284.288, 492.918 284.284, 495.466 282.615 C 499.239 280.142, 499.743 281.292, 497.189 286.549 C 495.985 289.026, 495 291.266, 495 291.527 C 495 292.663, 497.162 291.838, 499 290 C 500.217 288.783, 502.333 288, 504.406 288 C 507.347 288, 508.302 287.318, 511.393 283.016 C 516.297 276.190, 524.509 270.655, 534.250 267.610 C 537.187 266.692, 536.200 264.998, 532.750 265.037 C 523.239 265.144, 497.264 273.296, 489.377 278.648 C 487.471 279.942, 485.706 281, 485.456 281 C 485.205 281, 485 279.677, 485 278.059 C 485 273.984, 483.629 273.517, 478.691 275.908 C 474.336 278.016, 467 286.406, 467 289.277 C 467 292.550, 465.601 294.095, 459.876 297.147 C 445.494 304.812, 428.677 325.701, 423.921 341.808 C 422.659 346.082, 422.618 346.111, 418.892 345.482 C 416.183 345.024, 413.829 345.424, 410.459 346.915 C 407.887 348.053, 405.453 348.780, 405.050 348.531 C 403.831 347.777, 403.828 335.669, 405.046 328.364 C 406.042 322.388, 409.091 308.907, 410.603 303.794 C 411.004 302.438, 409.915 301.741, 405.304 300.401 C 398.471 298.416, 395 296.350, 395 294.268 C 395 292.587, 395.241 292.637, 405.166 296.388 C 412.682 299.227, 412.146 299.483, 416.447 291 C 420.514 282.977, 427.429 273.441, 434.748 265.758 C 438.281 262.050, 440.985 258.450, 440.757 257.758 C 440.528 257.066, 437.905 255.136, 434.928 253.468 C 431.951 251.801, 429.388 249.774, 429.232 248.965 C 428.604 245.706, 451.808 226.087, 461.730 221.487 C 463.507 220.663, 465.696 218.867, 466.595 217.495 C 467.494 216.123, 468.840 215, 469.585 215 C 470.330 215, 473.541 213.696, 476.720 212.101 C 485.545 207.675, 507.434 200.065, 517.500 197.924 C 531.880 194.865, 554.411 193.430, 565.341 194.876 C 576.535 196.358, 589.277 199.753, 603.647 205.083 C 609.616 207.296, 615.127 209.319, 615.893 209.577 C 616.659 209.836, 617.038 210.296, 616.734 210.599 C 616.430 210.903, 611.755 209.494, 606.344 207.467 C 566.884 192.688, 540.978 192.116, 500 205.120 C 477.819 212.159, 455.410 225.452, 436.479 242.798 C 432.544 246.404, 430.044 249.404, 430.576 249.883 C 431.084 250.339, 434.294 252.221, 437.709 254.064 L 443.918 257.417 448.209 254.204 C 472.418 236.079, 490.691 227.310, 516.153 221.599 C 539.392 216.387, 570.825 216.407, 595.954 221.650 C 615.034 225.631, 614 225.547, 614 223.113 C 614 220.320, 614.919 220.431, 622.279 224.110 C 631.958 228.949, 644.754 237.889, 651.450 244.491 C 661.297 254.199, 672.163 271.934, 677.955 287.750 C 679.214 291.188, 680.751 294.039, 681.372 294.086 C 681.992 294.134, 684.075 294.246, 686 294.336 L 689.500 294.500 690.139 302 C 690.491 306.125, 690.992 312.742, 691.252 316.705 L 691.727 323.910 687.613 320.557 C 683.182 316.945, 674.818 313.993, 669.068 314.012 C 662.394 314.034, 651.181 317.897, 646.884 321.654 C 645.448 322.910, 643.900 321.698, 632.884 310.687 C 625.480 303.286, 617.283 296.210, 612.500 293.091 C 594.576 281.402, 576.385 275.007, 561.050 275.003 C 551.666 275, 551.413 274.161, 559.934 271.315 C 562.922 270.317, 565.570 268.869, 565.818 268.097 C 566.192 266.931, 564.599 266.794, 556.384 267.286 C 534.293 268.610, 521.370 275.720, 509.022 293.348 C 504.508 299.792, 504.427 300, 506.452 300 C 507.251 300, 509.266 298.020, 510.931 295.601 C 515.442 289.043, 528.792 280, 533.960 280 C 536.252 280, 536.635 281.915, 534.750 283.947 C 533.736 285.040, 533.794 285.192, 535.058 284.752 C 541.463 282.524, 554.119 280.852, 560.113 281.442 C 579.482 283.351, 602.314 292.530, 616.698 304.190 C 624.154 310.233, 633.658 319.950, 635.549 323.461 C 637.261 326.639, 637.260 326.642, 633.633 331.394 C 622.189 346.386, 615.971 371.335, 617.406 396.500 C 618.054 407.863, 620.695 421.941, 623.388 428.386 C 627.539 438.322, 636.402 446.338, 644.594 447.566 C 648.716 448.185, 649.051 448.476, 650.096 452.357 C 651.612 457.986, 653.719 461.925, 662.300 475.163 C 670.495 487.805, 681.437 507.275, 685.989 517.315 C 693.964 534.904, 698.738 552.355, 704.914 586.500 C 711.460 622.685, 710.632 658.095, 702.415 693.490 C 701.009 699.546, 699.229 705.850, 698.460 707.500 C 697.690 709.150, 696.018 713.204, 694.744 716.509 C 691.005 726.209, 678.489 746.404, 671.758 753.599 C 659.329 766.886, 644.324 774.744, 623 779.133 C 611.547 781.491, 577 783.007, 577 781.152 C 577 780.529, 580.013 778.654, 583.695 776.984 C 591.304 773.534, 603.077 765.015, 610.594 757.521 C 617.321 750.814, 626.614 734, 623.594 734 C 623.370 734, 620.108 737.195, 616.344 741.100 C 612.580 745.004, 604.550 751.894, 598.500 756.409 C 587.847 764.360, 569.583 776, 567.761 776 C 567.269 776, 565.434 777.042, 563.683 778.317 C 558.230 782.285, 533.047 793.583, 521 797.466 C 514.675 799.504, 509.050 801.528, 508.500 801.964 C 507.352 802.872, 496.418 805.645, 490.500 806.529 C 488.300 806.857, 481.550 807.210, 475.500 807.313 C 467.271 807.453, 463.643 807.941, 461.096 809.250 C 457.948 810.869, 455 811.529, 455 810.615 C 455 808.614, 458.230 803.489, 460.380 802.078 C 462.749 800.525, 462.890 800.154, 461.541 799.034 C 460.261 797.972, 459.410 798.213, 456.439 800.479 C 454.478 801.975, 452.143 804.729, 451.251 806.599 C 449.240 810.817, 447 811.066, 447 807.071 C 447 804.137, 451.771 797.969, 455 796.729 C 456.333 796.216, 456.333 796.034, 455 795.091 C 452.587 793.385, 449.282 793.823, 443.867 796.567 C 438.588 799.243, 436.708 799.107, 438.792 796.202 C 439.463 795.266, 440.278 793.825, 440.601 793 C 440.925 792.175, 442.079 789.187, 443.167 786.360 C 446.225 778.406, 457.229 767.037, 465.178 763.619 C 468.655 762.123, 472.175 760.542, 473 760.105 C 473.825 759.669, 477.431 753.504, 481.014 746.406 C 484.596 739.308, 488.823 731.475, 490.407 729 C 503.366 708.750, 530.833 681.282, 548.059 671.346 C 571.653 657.736, 609.650 656.242, 628.508 668.182 C 637.406 673.815, 648.269 683.402, 656.005 692.445 C 660.500 697.700, 664.399 702, 664.670 702 C 665.438 702, 661.101 695.056, 656.652 689.163 C 654.436 686.228, 649.931 681.391, 646.641 678.413 C 640.314 672.687, 640.465 671.666, 647.137 675.070 C 649.368 676.208, 651.470 676.863, 651.808 676.526 C 652.755 675.578, 647.371 671.669, 637.782 666.342 C 632.987 663.679, 629.050 661.199, 629.032 660.830 C 629.014 660.462, 631.245 659.415, 633.989 658.504 C 644.479 655.019, 661.601 641.644, 670.395 630.064 C 676.536 621.977, 680.347 614.682, 684.855 602.385 C 690.605 586.703, 691.481 582.093, 691.491 567.500 C 691.504 549.261, 690.022 547.048, 688.480 563 C 687.089 577.386, 685.355 584.878, 680.497 597.500 C 675.555 610.338, 668.957 621.021, 660.507 629.865 C 651.626 639.160, 641.135 645.991, 627.618 651.278 C 617.877 655.088, 617.293 655.194, 611.940 654.118 C 597.454 651.206, 571.862 653.681, 556.440 659.486 C 547.077 663.011, 525.927 667.171, 515.301 667.578 C 510.242 667.772, 502.517 668.847, 498.134 669.966 C 493.751 671.085, 489.449 671.726, 488.574 671.390 C 487.700 671.054, 485.525 671.467, 483.742 672.307 C 477.649 675.177, 473.942 675.241, 467.517 672.588 C 461.342 670.037, 461.375 669.897, 468.565 668.061 C 475.488 666.293, 479.050 660.384, 474.292 658.559 C 473.438 658.231, 470.805 659.096, 468.442 660.481 C 465.029 662.481, 462.791 663, 457.572 663 C 450.844 663, 449.343 661.957, 453.144 659.923 C 456.579 658.085, 464 650.872, 464 649.373 C 464 647.410, 462.196 647.676, 456.500 650.478 C 445.720 655.781, 443.550 652.013, 452.573 643.659 C 455.639 640.822, 463.626 633.063, 470.323 626.417 C 500.558 596.416, 542.168 578.289, 585.250 576.351 C 593.362 575.986, 600 575.343, 600 574.921 C 600 573.804, 593.924 571.979, 586.903 570.986 C 583.540 570.511, 580.550 569.884, 580.259 569.592 C 579.967 569.301, 580.475 567.923, 581.388 566.531 C 582.300 565.139, 584.895 558.713, 587.156 552.250 C 592.193 537.850, 597.841 526.367, 603.660 518.698 C 606.294 515.226, 607.293 513.308, 606.148 513.921 C 603.337 515.425, 595.231 524.656, 590.967 531.210 C 586.232 538.489, 576.053 563.690, 576.015 568.231 C 576.006 569.226, 575.044 570.143, 573.750 570.389 C 572.513 570.624, 565.650 571.769, 558.500 572.934 C 541.603 575.688, 524.910 581.384, 508 590.167 C 491.486 598.744, 478.582 608.220, 465.795 621.159 L 456.090 630.979 451.025 625.833 C 448.239 623.003, 445.730 619.745, 445.450 618.594 C 445.056 616.974, 449.914 585.386, 453.522 566.106 C 453.800 564.621, 452.899 565.768, 451.429 568.770 C 448.197 575.374, 441.407 598.597, 440.472 606.250 C 440.086 609.413, 439.452 612, 439.063 612 C 438.675 612, 433.893 606.351, 428.438 599.446 C 420.810 589.793, 418.089 587.005, 416.659 587.379 C 415.636 587.646, 411.430 587.221, 407.312 586.433 C 398.584 584.763, 370.845 584.527, 361 586.038 C 357.425 586.587, 352.250 587.321, 349.500 587.668 C 346.750 588.015, 344.151 588.888, 343.724 589.607 C 343.298 590.326, 340.510 591.683, 337.529 592.622 L 332.109 594.331 325.778 588.415 C 315.017 578.361, 304.670 574.115, 281.176 570.113 C 274.947 569.053, 269.685 568.018, 269.481 567.815 C 268.517 566.851, 266.688 557.978, 267.323 557.344 C 268.331 556.336, 284.691 558.758, 295.777 561.557 C 307.643 564.552, 321.745 571.292, 329.877 577.854 C 336.572 583.256, 341.028 584.789, 338.995 580.990 C 337.034 577.326, 323.856 567.334, 315.489 563.168 C 305.095 557.991, 293.179 554.522, 279.010 552.545 C 264.111 550.467, 261.578 550.499, 262.512 552.750 C 263.872 556.027, 265.702 567.066, 264.961 567.524 C 264.555 567.775, 259.173 567.314, 253 566.500 C 246.827 565.686, 241.342 565.289, 240.810 565.617 C 240.278 565.946, 246.103 572.579, 253.754 580.357 C 274.140 601.083, 294.276 621.979, 297.860 626.129 L 300.995 629.758 298.936 634.411 C 296.031 640.979, 295.343 651.228, 297.345 658.116 C 299.330 664.943, 304.239 671.886, 308.115 673.350 C 310.124 674.108, 310.854 674.931, 310.445 675.977 C 306.275 686.653, 306.086 704.279, 309.994 718 C 312.512 726.840, 318.191 739.864, 321.985 745.500 C 323.466 747.700, 325.870 751.317, 327.328 753.539 C 328.786 755.760, 332.319 760.203, 335.180 763.413 C 340.132 768.968, 340.288 769.312, 338.441 770.574 C 331.595 775.252, 327.691 778.684, 326.927 780.692 C 326.119 782.818, 325.462 783, 318.582 783 C 309.401 783, 275.979 786.477, 264.831 788.591 C 256.861 790.103, 249.810 792.880, 248.482 795.030 C 247.390 796.795, 250.812 800.894, 254.770 802.561 C 260.533 804.989, 273.082 807.687, 289 809.920 C 302.802 811.857, 312.969 812.598, 360 815.097 C 392.253 816.810, 587.236 816.449, 647 814.565 C 707.752 812.650, 735.524 811.358, 757 809.450 C 800.224 805.609, 818.888 798.194, 803.931 790.805 C 799.281 788.508, 783.534 785.475, 766.028 783.504 C 758.068 782.609, 751.093 781.540, 750.528 781.129 C 749.962 780.718, 746.125 779.553, 742 778.539 C 737.875 777.526, 734.337 776.565, 734.139 776.404 C 733.940 776.243, 735.816 772.372, 738.306 767.803 C 743.054 759.092, 758.921 720.075, 769.117 692.038 C 772.410 682.983, 777.594 670.274, 780.638 663.794 C 786.767 650.746, 787.293 646.420, 781.688 655.155 C 773.658 667.672, 766.581 683.533, 752.536 720.500 C 744.143 742.590, 732.811 770.630, 731.415 772.766 C 729.978 774.963, 729.558 775.018, 717.716 774.563 C 710.997 774.305, 695.938 773.779, 684.250 773.394 C 672.563 773.010, 663 772.350, 663 771.928 C 663 771.507, 666.949 767.188, 671.776 762.331 C 681.448 752.598, 687.981 743.902, 693.960 732.802 C 709.628 703.716, 717.986 659.086, 715.151 619.646 C 713.048 590.394, 708.453 565.369, 700.395 539.286 C 692.937 515.145, 685.648 499.897, 671.047 477.895 C 663.023 465.805, 655.165 451.501, 656.056 450.610 C 656.340 450.326, 658.969 450.796, 661.898 451.655 C 668.869 453.698, 676.406 452.317, 687.730 446.922 C 692.256 444.765, 696.572 443, 697.320 443 C 698.068 443, 701.444 441.619, 704.821 439.931 C 715.975 434.358, 725.928 420.315, 730.077 404.300 C 732.404 395.313, 732.916 376.970, 731.090 368 C 729.538 360.381, 724.093 349.417, 719.035 343.729 C 715.670 339.944, 714.921 338.449, 715.412 336.494 C 716.244 333.180, 714.271 311.935, 712.456 304.669 C 711.655 301.462, 711 297.766, 711 296.454 C 711 290.805, 702.114 271.074, 695.483 262 C 689.537 253.863, 677.632 241.182, 670 234.856 C 648.854 217.328, 616.814 201.748, 585.645 193.837 C 574.390 190.980, 572.034 190.733, 553.500 190.471 C 542.500 190.316, 532.150 190.388, 530.500 190.632 M 632.779 220.032 C 653.274 233.653, 673.304 255.844, 683.295 276 C 686.158 281.775, 688.528 286.603, 688.562 286.728 C 688.767 287.491, 705 291.537, 705 290.825 C 705 289.436, 698.071 276.034, 694.234 270 C 685.579 256.391, 672.417 243.131, 657.755 233.252 C 654.693 231.189, 648.882 227.212, 644.843 224.415 C 635.917 218.235, 627.531 213.595, 623.500 212.607 C 621.662 212.157, 625.255 215.032, 632.779 220.032 M 399.035 287.934 C 398.466 288.998, 398 290.643, 398 291.589 C 398 293.217, 398.103 293.217, 399.900 291.590 C 402.349 289.374, 403.279 286, 401.442 286 C 400.687 286, 399.605 286.870, 399.035 287.934 M 695.526 300.149 C 695.931 302.542, 696.249 311.250, 696.233 319.500 C 696.217 327.750, 696.413 335.288, 696.669 336.250 C 697.056 337.704, 698.309 338, 704.067 338 L 711 338 710.980 332.250 C 710.961 326.537, 708.574 306.385, 707.526 303.082 C 706.969 301.326, 701.413 297.811, 697.145 296.514 C 694.854 295.818, 694.810 295.916, 695.526 300.149 M 389.996 307.739 C 388.815 310.896, 387.597 315.609, 387.288 318.212 C 386.762 322.658, 386.892 323.009, 389.429 323.973 C 393.112 325.373, 398.301 325.265, 400.113 323.750 C 401.391 322.681, 404.978 311.342, 405.372 307.126 C 405.487 305.892, 396.534 302.105, 393.322 302.028 C 392.674 302.013, 391.177 304.583, 389.996 307.739 M 676 327.230 C 667.473 330.965, 660.982 338.499, 654.497 352.186 C 648.256 365.358, 646.704 373.279, 646.596 392.500 C 646.487 411.899, 647.341 415.817, 654.170 427.222 C 661.437 439.357, 669.421 444.723, 678.460 443.545 C 688.866 442.189, 690.502 440.981, 684.580 439.027 C 677.167 436.580, 669.645 425.068, 666.345 411.122 C 664.071 401.509, 665.099 383.974, 668.590 372.844 C 671.696 362.943, 678.726 350.645, 685.056 344.040 L 689.613 339.286 689.190 332.643 L 688.767 326 683.634 326.068 C 680.810 326.105, 677.375 326.628, 676 327.230 M 388.498 329.741 C 386.457 331.289, 384.857 335.754, 385.174 339.023 C 385.482 342.202, 385.840 342.494, 391.500 344.183 C 400.826 346.965, 400.513 347.191, 400.410 337.749 L 400.321 329.500 394.910 329.241 C 391.935 329.098, 389.049 329.323, 388.498 329.741 M 694.412 345.971 C 690.905 347.390, 682.083 358.133, 678.908 364.851 C 673.891 375.469, 672.555 382.102, 672.536 396.500 C 672.522 407.778, 672.825 410.260, 674.827 415.238 C 679.998 428.095, 686.200 433.832, 695.939 434.768 C 707.159 435.846, 718.083 424.788, 724.357 406 C 727.705 395.974, 728.426 388.377, 727.108 376.986 C 726.165 368.840, 725.338 366.170, 721.255 358.084 C 715.518 346.722, 713.057 344.966, 703.016 345.063 C 699.432 345.098, 695.560 345.507, 694.412 345.971 M 412.176 353.037 C 405.250 355.498, 400.674 358.371, 399.151 361.219 C 398.477 362.476, 396.706 364.210, 395.213 365.072 C 393.721 365.934, 391.388 368.857, 390.029 371.569 C 387.974 375.667, 387.492 378.309, 387.169 387.212 C 386.732 399.300, 387.935 408.020, 391.569 419.094 C 393.948 426.345, 399.133 435, 401.098 435 C 401.622 435, 401.742 433.156, 401.374 430.750 L 400.724 426.500 402.721 429 C 403.819 430.375, 405.501 433.028, 406.460 434.896 C 408.005 437.908, 408.021 438.222, 406.601 437.677 C 403.703 436.565, 404.930 438.685, 408.750 441.388 C 410.813 442.847, 414.750 445.827, 417.500 448.010 C 421.835 451.451, 430.709 455.624, 431.663 454.671 C 431.840 454.493, 430.460 452.633, 428.596 450.537 C 416.095 436.485, 407.974 408.721, 409.481 385.187 C 410.380 371.163, 412.150 364.802, 418.785 351.750 C 419.330 350.679, 418.192 350.900, 412.176 353.037 M 547.692 376.082 C 539.883 377.330, 533.477 383.318, 530.964 391.717 C 529.879 395.345, 529.944 396.564, 531.424 400.439 C 533.743 406.513, 541.156 414.534, 547.392 417.719 C 558.254 423.266, 575.217 421.285, 581.578 413.725 C 583.972 410.880, 584.186 409.985, 583.714 404.781 C 582.790 394.593, 574.909 383.981, 564.642 379.098 C 557.346 375.629, 554.122 375.055, 547.692 376.082 M 442 384.121 C 438.511 385.508, 434.139 389.856, 432.067 394 C 431.104 395.925, 429.714 401.497, 428.977 406.381 C 427.429 416.643, 428.152 419.017, 433.843 422.340 C 437.905 424.713, 447.463 424.846, 451.824 422.591 C 462.352 417.147, 469.004 399.041, 463.540 390.702 C 459.422 384.417, 449.150 381.278, 442 384.121 M 546.174 387.314 C 543.395 390.273, 543.429 392.115, 546.314 394.826 C 550.633 398.883, 559 396.996, 559 391.965 C 559 389.928, 552.591 385, 549.942 385 C 549.066 385, 547.370 386.042, 546.174 387.314 M 446.478 394.024 C 444.699 395.990, 444.705 396.128, 446.674 398.774 C 448.351 401.027, 449.682 401.589, 454.351 402.012 C 457.458 402.293, 460 402.243, 460 401.901 C 460 400.518, 451.255 392, 449.835 392 C 448.996 392, 447.486 392.911, 446.478 394.024 M 481.618 407.395 C 477.066 408.219, 474.236 409.295, 473.261 410.571 C 470.729 413.884, 469 418.786, 469 422.653 C 469 425.066, 468.255 427.164, 466.878 428.630 C 465.342 430.265, 464.933 431.597, 465.398 433.450 C 466.684 438.575, 482.820 447.481, 493.006 448.687 C 498.854 449.380, 511.802 446.207, 520.398 441.975 C 526.290 439.075, 536.101 431.876, 536.827 429.921 C 537.006 429.437, 535.525 428.264, 533.534 427.315 L 529.915 425.589 524.708 431.195 C 520.237 436.007, 518.509 437.105, 512.500 438.953 C 501.673 442.283, 493.894 442.725, 489.697 440.249 C 487.472 438.936, 485.774 438.529, 484.880 439.095 C 480.822 441.666, 472.972 438.226, 471.183 433.094 C 470.589 431.392, 470.388 430, 470.735 430 C 471.083 430, 474.092 430.968, 477.424 432.150 C 482.808 434.062, 484.099 434.173, 489.051 433.150 C 492.114 432.518, 496.262 432, 498.268 432 C 501.150 432, 502.790 431.169, 506.077 428.042 C 509.654 424.639, 510.140 423.692, 509.541 421.292 C 507.671 413.800, 500.591 407.726, 492.500 406.670 C 490.300 406.384, 485.403 406.710, 481.618 407.395 M 259 574.597 C 259 575.402, 289.080 607.224, 300.720 618.732 C 310.668 628.567, 321.980 637.444, 329.130 641.026 C 334.689 643.811, 339.645 648.471, 342.088 653.210 C 344.520 657.929, 344.494 659.426, 341.950 661.128 C 340.005 662.429, 340.872 663.405, 358.700 679.980 C 386.953 706.250, 395 714.427, 395 716.865 C 395 719.567, 397.109 719.587, 402.945 716.940 C 414.074 711.891, 454.923 705.505, 489.500 703.409 C 495.550 703.042, 501.175 702.365, 502 701.904 C 506.590 699.342, 506.645 699.504, 497.621 689.082 C 492.819 683.537, 488.802 679.006, 488.695 679.013 C 488.588 679.020, 485.661 679.916, 482.190 681.004 C 477.022 682.624, 475.066 682.799, 471.378 681.973 C 464.195 680.363, 454.314 675.466, 452.977 672.854 C 452.315 671.559, 449.335 668.210, 446.356 665.412 C 442.500 661.790, 441.124 659.839, 441.583 658.644 C 441.938 657.720, 441.669 655.614, 440.985 653.964 C 439.395 650.126, 441.635 643.682, 446.018 639.483 C 447.658 637.912, 449 636.041, 449 635.326 C 449 634.612, 446.612 631.208, 443.693 627.763 C 440.774 624.319, 434.484 616.550, 429.714 610.500 C 414.626 591.361, 416.190 592.631, 406.730 591.844 C 393.317 590.728, 375.469 590.967, 360 592.469 C 348.332 593.601, 344.035 594.468, 338 596.904 C 333.875 598.569, 329.819 599.947, 328.987 599.966 C 328.155 599.985, 325.533 597.515, 323.161 594.479 C 318.203 588.130, 313.797 585.606, 300 581.213 C 286.653 576.963, 259 572.501, 259 574.597 M 310.500 633.719 C 307.007 634.570, 305.127 637.075, 303.913 642.496 C 302.878 647.125, 302.989 648.604, 304.828 654.658 C 307.626 663.873, 313.067 668.862, 322.035 670.437 C 326.347 671.195, 331.500 669.829, 331.500 667.928 C 331.500 667.143, 329.137 665.234, 326.250 663.687 C 323.363 662.139, 321 660.452, 321 659.937 C 321 659.421, 323.420 659, 326.378 659 C 329.656 659, 332.190 658.476, 332.869 657.658 C 334.508 655.683, 333.236 655, 327.915 655 C 321.942 655, 320 654.264, 320 652 C 320 649.946, 321.918 649, 326.082 649 C 327.687 649, 329 648.598, 329 648.107 C 329 647, 326.515 646, 323.763 646 C 320.905 646, 314 638.544, 314 635.458 C 314 634.106, 313.663 633.052, 313.250 633.116 C 312.837 633.180, 311.600 633.451, 310.500 633.719 M 309 649.300 C 309 651.303, 311.155 653, 313.700 653 C 316.611 653, 316.643 651.564, 313.777 649.557 C 311.070 647.660, 309 647.549, 309 649.300 M 311 658.407 C 311 659.255, 312.462 660.688, 314.250 661.591 C 316.038 662.495, 318.512 664.160, 319.750 665.291 C 323.480 668.702, 322.523 664.889, 318.750 661.306 C 314.807 657.562, 311 656.138, 311 658.407 M 335.096 674.838 C 331.893 676.643, 328.683 677.449, 323.331 677.793 C 314.330 678.370, 314.477 678.055, 314.605 696.500 C 314.707 711.304, 317.064 721.181, 323.622 734.288 C 327.668 742.376, 337.868 756.564, 343.722 762.250 L 347.583 765.999 353.340 764.500 C 356.507 763.675, 360.763 763.044, 362.799 763.099 L 366.500 763.198 362.416 764.487 C 354.468 766.997, 342.702 774.525, 336.233 781.239 C 330.990 786.682, 329.678 793.269, 333.067 797.139 L 335.134 799.500 334.668 796.551 C 333.912 791.773, 335.481 789, 338.940 789 C 343.367 789, 344.840 792.284, 342.426 796.768 C 340.781 799.821, 340.741 800.447, 342.045 802.759 C 342.845 804.178, 344.034 805.516, 344.686 805.732 C 346.329 806.275, 347.739 800.389, 347.213 795.183 C 346.861 791.692, 347.214 790.401, 349.063 788.433 C 351.695 785.631, 354.779 785.260, 355.691 787.636 C 356.603 790.013, 354.707 792.425, 351.476 793 C 344.259 794.284, 349.826 798, 360 798.690 C 363.575 798.933, 377.300 798.725, 390.500 798.228 C 418.294 797.182, 422.452 796.122, 428.190 788.618 C 429.922 786.353, 433.383 782.363, 435.880 779.752 L 440.421 775.004 436.283 770.752 C 431.720 766.062, 420.340 752.556, 413.741 744 C 406.241 734.274, 349.054 678.700, 341.138 673.444 C 339.871 672.603, 338.502 672.919, 335.096 674.838 M 519 674.042 C 515.975 674.460, 510.274 674.847, 506.332 674.901 C 498.496 675.009, 495.985 675.608, 496.029 677.357 C 496.045 677.986, 499.324 682.050, 503.316 686.390 L 510.574 694.280 520.787 684.257 C 526.404 678.745, 531 673.957, 531 673.618 C 531 672.863, 526.338 673.027, 519 674.042 M 474.500 711.072 C 467.900 711.501, 458.675 712.329, 454 712.912 C 445.494 713.973, 412.897 720.029, 412.051 720.705 C 411.804 720.903, 412.984 723.862, 414.672 727.282 C 418.259 734.548, 425.707 744.594, 437.684 758.324 L 446.254 768.147 449.313 764.436 C 452.593 760.457, 460.447 756.432, 466.965 755.390 C 470.424 754.836, 471.074 754.297, 472.101 751.128 C 474.887 742.528, 483.257 727.792, 491.634 716.739 C 494.035 713.570, 496 710.758, 496 710.489 C 496 709.893, 490.272 710.048, 474.500 711.072" stroke="none" fill="#101a1d" fill-rule="evenodd"/><path d="M 536.783 195.054 C 531.989 195.480, 524.114 196.600, 519.283 197.542 C 509.505 199.449, 485.626 207.612, 476.720 212.092 C 473.541 213.692, 470.330 215, 469.585 215 C 468.840 215, 467.524 216.078, 466.660 217.396 C 465.796 218.714, 463.504 220.627, 461.566 221.646 C 448.708 228.411, 428.075 246.147, 429.312 249.372 C 429.637 250.218, 431.837 251.882, 434.201 253.071 C 436.566 254.260, 439.288 255.925, 440.250 256.771 C 441.213 257.618, 442 257.853, 442 257.294 C 442 256.736, 439.276 254.827, 435.946 253.052 C 432.616 251.277, 430.029 249.490, 430.196 249.081 C 430.363 248.671, 433.425 245.646, 437 242.358 C 455.368 225.466, 477.952 212.117, 500 205.120 C 540.978 192.116, 566.884 192.688, 606.344 207.467 C 611.755 209.494, 616.430 210.903, 616.734 210.599 C 617.038 210.296, 616.659 209.836, 615.893 209.577 C 615.127 209.319, 609.616 207.296, 603.647 205.083 C 576.614 195.057, 561.780 192.832, 536.783 195.054 M 632.779 220.032 C 653.274 233.653, 673.304 255.844, 683.295 276 C 686.158 281.775, 688.528 286.603, 688.562 286.728 C 688.767 287.491, 705 291.537, 705 290.825 C 705 289.436, 698.071 276.034, 694.234 270 C 685.579 256.391, 672.417 243.131, 657.755 233.252 C 654.693 231.189, 648.882 227.212, 644.843 224.415 C 635.917 218.235, 627.531 213.595, 623.500 212.607 C 621.662 212.157, 625.255 215.032, 632.779 220.032 M 399.480 287.033 C 399.129 287.600, 398.440 289.467, 397.948 291.181 L 397.054 294.298 399.433 292.063 C 402.274 289.394, 403.411 286, 401.465 286 C 400.724 286, 399.831 286.465, 399.480 287.033 M 498.923 290.077 C 497.780 291.220, 496.205 291.909, 495.423 291.609 C 493.868 291.012, 493.762 291.538, 494.871 294.356 C 495.516 295.998, 495.913 295.802, 498.305 292.666 C 500.379 289.948, 501.884 289.029, 504.755 288.728 L 508.500 288.336 504.750 288.168 C 502.126 288.050, 500.376 288.624, 498.923 290.077 M 695.526 300.149 C 695.931 302.542, 696.249 311.250, 696.233 319.500 C 696.217 327.750, 696.413 335.288, 696.669 336.250 C 697.056 337.704, 698.309 338, 704.067 338 L 711 338 710.980 332.250 C 710.961 326.537, 708.574 306.385, 707.526 303.082 C 706.969 301.326, 701.413 297.811, 697.145 296.514 C 694.854 295.818, 694.810 295.916, 695.526 300.149 M 389.996 307.739 C 388.815 310.896, 387.597 315.609, 387.288 318.212 C 386.762 322.658, 386.892 323.009, 389.429 323.973 C 393.112 325.373, 398.301 325.265, 400.113 323.750 C 401.391 322.681, 404.978 311.342, 405.372 307.126 C 405.487 305.892, 396.534 302.105, 393.322 302.028 C 392.674 302.013, 391.177 304.583, 389.996 307.739 M 388.498 329.741 C 386.457 331.289, 384.857 335.754, 385.174 339.023 C 385.482 342.202, 385.840 342.494, 391.500 344.183 C 400.826 346.965, 400.513 347.191, 400.410 337.749 L 400.321 329.500 394.910 329.241 C 391.935 329.098, 389.049 329.323, 388.498 329.741 M 682.500 333.532 C 674.850 338.133, 672.691 340.161, 667.775 347.363 C 655.034 366.026, 650.707 388.889, 654.926 415.264 C 656.134 422.815, 656.850 429.434, 656.517 429.972 C 655.553 431.532, 663.736 439.694, 668.646 442.071 C 672.287 443.833, 674.101 444.114, 678.314 443.564 C 688.876 442.187, 690.529 440.990, 684.580 439.027 C 677.167 436.580, 669.645 425.068, 666.345 411.122 C 664.071 401.509, 665.099 383.974, 668.590 372.844 C 671.715 362.881, 678.735 350.636, 685.171 343.921 C 689.696 339.200, 689.820 338.906, 689.171 334.485 L 688.500 329.922 682.500 333.532 M 430.637 342.875 C 427.276 350.363, 427.292 351.506, 430.688 346.509 C 432.938 343.197, 434.855 337, 433.628 337 C 433.433 337, 432.087 339.644, 430.637 342.875 M 694.412 345.971 C 690.905 347.390, 682.083 358.133, 678.908 364.851 C 673.891 375.469, 672.555 382.102, 672.536 396.500 C 672.522 407.778, 672.825 410.260, 674.827 415.238 C 679.998 428.095, 686.200 433.832, 695.939 434.768 C 707.159 435.846, 718.083 424.788, 724.357 406 C 727.705 395.974, 728.426 388.377, 727.108 376.986 C 726.165 368.840, 725.338 366.170, 721.255 358.084 C 715.518 346.722, 713.057 344.966, 703.016 345.063 C 699.432 345.098, 695.560 345.507, 694.412 345.971 M 412.176 353.037 C 405.201 355.515, 400.647 358.390, 399.224 361.216 C 395.036 369.530, 392.968 390.752, 394.921 405.370 C 395.904 412.727, 400.729 430.566, 400.937 427.615 C 401.024 426.396, 404.345 430.776, 406.460 434.896 C 408.005 437.908, 408.021 438.222, 406.601 437.677 C 403.703 436.565, 404.930 438.685, 408.750 441.388 C 410.813 442.847, 414.750 445.827, 417.500 448.010 C 421.835 451.451, 430.709 455.624, 431.663 454.671 C 431.840 454.493, 430.460 452.633, 428.596 450.537 C 416.095 436.485, 407.974 408.721, 409.481 385.187 C 410.380 371.163, 412.150 364.802, 418.785 351.750 C 419.330 350.679, 418.192 350.900, 412.176 353.037 M 259 574.597 C 259 575.402, 289.080 607.224, 300.720 618.732 C 310.668 628.567, 321.980 637.444, 329.130 641.026 C 334.689 643.811, 339.645 648.471, 342.088 653.210 C 344.520 657.929, 344.494 659.426, 341.950 661.128 C 340.005 662.429, 340.872 663.405, 358.700 679.980 C 386.953 706.250, 395 714.427, 395 716.865 C 395 719.567, 397.109 719.587, 402.945 716.940 C 414.074 711.891, 454.923 705.505, 489.500 703.409 C 495.550 703.042, 501.175 702.365, 502 701.904 C 506.590 699.342, 506.645 699.504, 497.621 689.082 C 492.819 683.537, 488.802 679.006, 488.695 679.013 C 488.588 679.020, 485.661 679.916, 482.190 681.004 C 477.022 682.624, 475.066 682.799, 471.378 681.973 C 464.195 680.363, 454.314 675.466, 452.977 672.854 C 452.315 671.559, 449.335 668.210, 446.356 665.412 C 442.500 661.790, 441.124 659.839, 441.583 658.644 C 441.938 657.720, 441.669 655.614, 440.985 653.964 C 439.395 650.126, 441.635 643.682, 446.018 639.483 C 447.658 637.912, 449 636.041, 449 635.326 C 449 634.612, 446.612 631.208, 443.693 627.763 C 440.774 624.319, 434.484 616.550, 429.714 610.500 C 414.626 591.361, 416.190 592.631, 406.730 591.844 C 393.317 590.728, 375.469 590.967, 360 592.469 C 348.332 593.601, 344.035 594.468, 338 596.904 C 333.875 598.569, 329.819 599.947, 328.987 599.966 C 328.155 599.985, 325.533 597.515, 323.161 594.479 C 318.203 588.130, 313.797 585.606, 300 581.213 C 286.653 576.963, 259 572.501, 259 574.597 M 813.385 578.823 C 788.991 588.634, 764.165 621.442, 745.149 669 C 740.544 680.517, 731.337 712.225, 727.013 731.464 C 726.020 735.884, 723.263 747.016, 720.888 756.201 C 718.513 765.387, 716.856 773.189, 717.206 773.539 C 717.556 773.889, 720.529 774.419, 723.813 774.717 C 729.298 775.214, 729.912 775.064, 731.341 772.879 C 732.799 770.649, 743.982 743.012, 752.536 720.500 C 766.581 683.533, 773.658 667.672, 781.688 655.155 C 787.293 646.420, 786.767 650.746, 780.638 663.794 C 777.594 670.274, 772.410 682.983, 769.117 692.038 C 758.921 720.075, 743.054 759.092, 738.306 767.803 C 735.816 772.372, 733.940 776.230, 734.139 776.375 C 735.038 777.031, 747.157 779.994, 748.735 779.943 C 751.769 779.846, 765.394 762.036, 785.030 732.500 C 797.707 713.431, 802.480 705.272, 811.149 687.850 C 833.634 642.663, 844.304 599.804, 836.750 585.020 C 832.183 576.082, 824.963 574.167, 813.385 578.823 M 314.349 696 C 314.349 700.675, 314.522 702.587, 314.732 700.250 C 314.943 697.913, 314.943 694.087, 314.732 691.750 C 314.522 689.413, 314.349 691.325, 314.349 696" stroke="none" fill="#047c7c" fill-rule="evenodd"/><path d="M 537 189.561 C 537.825 189.742, 546.600 190.046, 556.500 190.236 C 566.400 190.426, 572.700 190.251, 570.500 189.848 C 566.700 189.152, 533.852 188.870, 537 189.561 M 623.083 206.385 C 624.101 207.325, 644 216.966, 644 216.518 C 644 215.964, 624.440 206, 623.352 206 C 622.975 206, 622.854 206.173, 623.083 206.385 M 544.750 218.746 C 550.388 218.924, 559.612 218.924, 565.250 218.746 C 570.888 218.568, 566.275 218.422, 555 218.422 C 543.725 218.422, 539.112 218.568, 544.750 218.746 M 618 222.471 C 618 222.746, 620.700 224.334, 624 226 C 627.300 227.666, 630 228.804, 630 228.529 C 630 228.254, 627.300 226.666, 624 225 C 620.700 223.334, 618 222.196, 618 222.471 M 559.838 266.743 C 565.314 267.051, 566.088 267.331, 565.529 268.800 C 565.035 270.096, 565.160 270.224, 566.054 269.337 C 568.269 267.139, 565.959 265.998, 559.691 266.193 L 553.500 266.385 559.838 266.743 M 541 268.133 C 535.705 269.575, 534.669 270.002, 535.195 270.528 C 535.459 270.793, 537.066 270.524, 538.765 269.932 C 540.464 269.340, 544.025 268.491, 546.677 268.045 C 550.767 267.358, 550.968 267.231, 548 267.208 C 546.075 267.193, 542.925 267.609, 541 268.133 M 553.345 274.250 C 553.090 274.663, 556.621 274.933, 561.191 274.850 C 569.617 274.698, 568.864 274.305, 559.154 273.786 C 556.214 273.629, 553.600 273.837, 553.345 274.250 M 530.844 281.433 C 524.282 283.706, 518.294 287.860, 512.752 293.985 C 509.758 297.293, 506.486 300, 505.480 300 C 503.853 300, 503.919 299.697, 506.076 297.257 C 508.259 294.787, 508.276 294.703, 506.250 296.412 C 503.469 298.758, 503.391 297.606, 506.002 292.735 L 508.004 289 504.553 289 C 501.766 289, 500.574 289.693, 498.359 292.596 C 495.738 296.032, 495.580 296.096, 494.818 294.037 C 494.275 292.570, 494.656 290.634, 496.010 287.980 C 498.322 283.448, 498.634 281.248, 496.750 282.755 C 496.063 283.305, 494.488 284.066, 493.250 284.445 C 491.580 284.957, 491 284.731, 491 283.567 C 491 280.855, 489.625 281.869, 485.506 287.617 C 479.109 296.545, 476 297.114, 476 289.358 C 476 286.237, 475.621 284.960, 474.778 285.241 C 473.153 285.782, 472.221 289.380, 472.100 295.583 C 471.989 301.213, 471.326 302.516, 469.390 300.909 C 467.543 299.376, 464.909 300.481, 458.452 305.495 C 451.711 310.730, 443.752 319.735, 439.218 327.257 C 435.955 332.671, 431.684 343, 432.709 343 C 433.004 343, 432.635 343.788, 431.890 344.750 C 431.144 345.712, 433.035 344.187, 436.091 341.360 C 449.026 329.395, 465.706 325.179, 481.145 329.974 C 484.640 331.059, 489.106 333.045, 491.068 334.386 L 494.636 336.825 499.568 333.738 C 509.690 327.404, 527.148 323.186, 537.886 324.480 C 558.866 327.007, 574.214 335.137, 591.026 352.629 C 606.570 368.801, 614.002 388.170, 612.690 409.084 C 612.319 414.995, 611.353 419.632, 609.587 423.979 C 597.831 452.911, 570.438 471.315, 531.400 476.510 C 514.927 478.703, 505.694 478.447, 491 475.391 C 487.812 474.728, 487.622 474.812, 488.872 476.331 C 490.890 478.784, 488.703 478.490, 483.135 475.562 C 474.204 470.863, 468 467.971, 468 468.506 C 468 468.802, 474.748 472.384, 482.996 476.466 C 491.244 480.547, 497.512 484.183, 496.925 484.546 C 495.183 485.623, 487.215 484.029, 478.767 480.914 C 474.420 479.311, 470.444 478, 469.932 478 C 469.419 478, 469 479.447, 469 481.217 C 469 484.990, 466.338 492.677, 464.081 495.422 C 463.211 496.479, 463.063 497.015, 463.750 496.613 C 464.438 496.211, 465 496.316, 465 496.847 C 465 498.093, 484.976 506.528, 491.500 508.037 C 494.250 508.673, 498.075 509.582, 500 510.055 C 506.637 511.689, 524.423 512.223, 534.388 511.087 C 553.977 508.855, 569.777 504.666, 591.911 495.836 C 604.607 490.771, 641.754 473.119, 649.944 468.259 C 652.450 466.772, 654.754 465.628, 655.064 465.716 C 655.374 465.804, 654.375 463.392, 652.844 460.357 C 651.313 457.321, 649.772 453.299, 649.419 451.419 C 648.854 448.408, 648.411 448, 645.704 448 C 634.430 448, 623.511 434.572, 619.276 415.500 C 617.049 405.467, 616.802 374.789, 618.874 365.500 C 621.886 351.995, 628.421 337.007, 634.133 330.502 C 637.076 327.149, 637.196 326.726, 635.919 324.204 C 633.795 320.010, 620.219 306.911, 611.954 301.079 C 602.776 294.605, 597.348 291.796, 586.736 288.028 C 575.777 284.138, 572.151 283.275, 561.500 282.020 C 553.291 281.053, 551.644 281.169, 542.750 283.341 C 533.315 285.645, 531.764 285.636, 534.112 283.288 C 536.302 281.098, 534.599 280.133, 530.844 281.433 M 686.693 294.714 C 688.294 295.012, 688.994 295.984, 689.283 298.311 C 689.663 301.371, 689.675 301.358, 689.589 298 C 689.512 294.985, 689.154 294.487, 687 294.404 C 684.942 294.324, 684.888 294.379, 686.693 294.714 M 631 308.500 C 635.651 313.175, 639.681 317, 639.956 317 C 640.231 317, 636.651 313.175, 632 308.500 C 627.349 303.825, 623.319 300, 623.044 300 C 622.769 300, 626.349 303.825, 631 308.500 M 443.966 308.750 L 438.500 314.500 444.250 309.034 C 449.592 303.956, 450.458 303, 449.716 303 C 449.560 303, 446.972 305.587, 443.966 308.750 M 690.320 312 C 690.320 315.575, 690.502 317.038, 690.723 315.250 C 690.945 313.462, 690.945 310.538, 690.723 308.750 C 690.502 306.962, 690.320 308.425, 690.320 312 M 380.310 332.500 C 380.315 335.800, 380.502 337.029, 380.725 335.232 C 380.947 333.435, 380.943 330.735, 380.715 329.232 C 380.486 327.729, 380.304 329.200, 380.310 332.500 M 404.754 346.491 C 405.331 349.513, 405.116 349.494, 409.754 346.922 L 413.500 344.845 410.209 345.511 C 408.285 345.900, 406.369 345.721, 405.596 345.080 C 404.545 344.208, 404.372 344.497, 404.754 346.491 M 419.310 384.500 C 419.315 387.800, 419.502 389.029, 419.725 387.232 C 419.947 385.435, 419.943 382.735, 419.715 381.232 C 419.486 379.729, 419.304 381.200, 419.310 384.500 M 443 449.500 C 445.987 452.525, 448.657 455, 448.932 455 C 449.207 455, 446.987 452.525, 444 449.500 C 441.013 446.475, 438.343 444, 438.068 444 C 437.793 444, 440.013 446.475, 443 449.500 M 419.768 461.725 C 421.565 461.947, 424.265 461.943, 425.768 461.715 C 427.271 461.486, 425.800 461.304, 422.500 461.310 C 419.200 461.315, 417.971 461.502, 419.768 461.725 M 657.556 469.750 C 663.602 479.057, 666.340 483, 666.757 483 C 667.017 483, 666.426 481.762, 665.444 480.250 C 659.398 470.943, 656.660 467, 656.243 467 C 655.983 467, 656.574 468.238, 657.556 469.750 M 669.278 488.250 C 670.635 490.587, 673.196 495.087, 674.968 498.250 C 678.018 503.692, 680.408 506.553, 677.892 501.750 C 674.638 495.540, 667.763 484, 667.317 484 C 667.038 484, 667.920 485.913, 669.278 488.250 M 681.705 510.472 C 683.182 513.482, 684.557 515.776, 684.762 515.571 C 685.211 515.122, 680.167 505, 679.494 505 C 679.234 505, 680.229 507.462, 681.705 510.472 M 607.400 511.879 C 605.255 513.463, 601.700 516.714, 599.500 519.105 C 596.009 522.898, 596.279 522.754, 601.622 517.975 C 604.989 514.964, 608.814 511.733, 610.122 510.795 C 611.430 509.857, 612.230 509.069, 611.900 509.045 C 611.570 509.020, 609.545 510.296, 607.400 511.879 M 685.490 518.750 C 685.877 519.712, 687.117 522.872, 688.244 525.770 C 689.371 528.669, 690.472 530.861, 690.691 530.642 C 691.185 530.148, 685.977 517, 685.287 517 C 685.011 517, 685.103 517.788, 685.490 518.750 M 260.737 551.758 C 261.063 552.606, 261.527 552.765, 261.902 552.158 C 262.245 551.603, 264.320 550.952, 266.513 550.712 C 269.852 550.347, 269.663 550.282, 265.348 550.312 C 261.336 550.340, 260.316 550.660, 260.737 551.758 M 408.966 555.750 L 403.500 561.500 409.250 556.034 C 414.592 550.956, 415.458 550, 414.716 550 C 414.560 550, 411.972 552.587, 408.966 555.750 M 688.320 556 C 688.320 559.575, 688.502 561.038, 688.723 559.250 C 688.945 557.462, 688.945 554.538, 688.723 552.750 C 688.502 550.962, 688.320 552.425, 688.320 556 M 411.500 562.716 C 408.200 565.810, 406.850 567.404, 408.500 566.258 C 411.377 564.259, 418.870 556.952, 417.946 557.045 C 417.701 557.070, 414.800 559.622, 411.500 562.716 M 692.355 566.500 C 692.352 571.450, 692.521 573.601, 692.731 571.280 C 692.940 568.959, 692.943 564.909, 692.736 562.280 C 692.530 559.651, 692.358 561.550, 692.355 566.500 M 686.250 572.939 C 685.575 577.569, 685.197 581.531, 685.410 581.744 C 686.014 582.348, 688.207 568.311, 687.821 566.308 C 687.632 565.326, 686.925 568.310, 686.250 572.939 M 396 572.581 C 392.975 573.878, 391.305 574.952, 392.290 574.969 C 394.112 575.001, 402 571.354, 402 570.480 C 402 570.216, 401.887 570.050, 401.750 570.112 C 401.613 570.173, 399.025 571.284, 396 572.581 M 257.500 585 C 263.531 591.050, 268.691 596, 268.966 596 C 269.241 596, 264.531 591.050, 258.500 585 C 252.469 578.950, 247.309 574, 247.034 574 C 246.759 574, 251.469 578.950, 257.500 585 M 445.005 581.681 C 441.679 590.516, 438.986 601.842, 439.123 606.410 C 439.231 609.975, 439.360 609.717, 440.124 604.404 C 440.607 601.051, 442.554 593.416, 444.452 587.438 C 448.201 575.624, 448.515 572.357, 445.005 581.681 M 584.750 576.732 C 587.087 576.943, 590.913 576.943, 593.250 576.732 C 595.587 576.522, 593.675 576.349, 589 576.349 C 584.325 576.349, 582.413 576.522, 584.750 576.732 M 711.173 583 C 711.141 584.375, 711.488 587.300, 711.943 589.500 C 712.473 592.066, 712.791 592.604, 712.827 591 C 712.859 589.625, 712.512 586.700, 712.057 584.500 C 711.527 581.934, 711.209 581.396, 711.173 583 M 338.928 585.802 C 342.102 588.607, 342.952 589.874, 341.928 590.278 C 340.924 590.675, 340.880 590.866, 341.781 590.921 C 342.486 590.964, 343.322 590.325, 343.638 589.500 C 343.961 588.660, 345.597 587.934, 347.357 587.850 C 349.824 587.732, 349.532 587.571, 346 587.100 C 342.212 586.595, 341.446 586.118, 341.159 584.088 C 340.899 582.244, 340.611 582.008, 339.940 583.088 C 339.206 584.267, 338.684 584.284, 336.781 583.195 C 335.526 582.477, 336.493 583.651, 338.928 585.802 M 375.296 584.744 C 379.583 584.932, 386.333 584.931, 390.296 584.742 C 394.258 584.552, 390.750 584.399, 382.500 584.400 C 374.250 584.401, 371.008 584.556, 375.296 584.744 M 407.924 586.459 C 411.457 587.153, 415.172 587.506, 416.179 587.243 C 417.187 586.979, 418.796 587.372, 419.755 588.115 C 421.207 589.239, 421.185 589.097, 419.624 587.265 C 418.246 585.648, 417.300 585.304, 416.059 585.969 C 415.050 586.508, 412.783 586.505, 410.435 585.960 C 408.271 585.458, 405.375 585.081, 404 585.122 C 402.625 585.163, 404.391 585.764, 407.924 586.459 M 839.360 600 C 839.360 605.225, 839.529 607.362, 839.735 604.750 C 839.941 602.138, 839.941 597.862, 839.735 595.250 C 839.529 592.638, 839.360 594.775, 839.360 600 M 685.700 601.200 C 684.189 605.097, 683.138 608.472, 683.366 608.699 C 683.593 608.926, 685.026 605.934, 686.550 602.050 C 688.074 598.166, 689.124 594.791, 688.884 594.551 C 688.644 594.311, 687.211 597.303, 685.700 601.200 M 708.423 635.500 C 708.424 647.050, 708.570 651.638, 708.747 645.696 C 708.924 639.753, 708.923 630.303, 708.745 624.696 C 708.567 619.088, 708.422 623.950, 708.423 635.500 M 472.469 624.250 L 466.500 630.500 472.750 624.531 C 478.556 618.987, 479.458 618, 478.719 618 C 478.564 618, 475.751 620.813, 472.469 624.250 M 662.469 639.250 L 656.500 645.500 662.750 639.531 C 666.188 636.249, 669 633.436, 669 633.281 C 669 632.542, 668.013 633.444, 662.469 639.250 M 589.789 652.741 C 593.248 652.937, 598.648 652.936, 601.789 652.738 C 604.930 652.540, 602.100 652.380, 595.500 652.382 C 588.900 652.384, 586.330 652.546, 589.789 652.741 M 576.849 661.564 C 554.688 665.574, 539.922 674.353, 517.786 696.678 C 498.879 715.746, 491.351 726.025, 480.888 747.062 C 477.617 753.639, 474.141 759.520, 473.164 760.130 C 471.611 761.099, 471.487 762.073, 472.179 767.823 C 472.812 773.086, 473.928 776.001, 477.736 782.350 C 483.950 792.711, 488.723 796.271, 499.851 798.844 C 509.533 801.083, 512.865 800.593, 528.500 794.630 C 559.418 782.839, 597.325 759.729, 615.336 741.689 C 620.196 736.822, 624.463 733.129, 624.817 733.484 C 625.962 734.629, 616.980 750.806, 612.321 755.987 C 606.416 762.556, 592.121 773.280, 584.334 776.985 C 575.299 781.283, 575.494 782.002, 585.691 781.984 C 628.418 781.907, 655.493 772.457, 673.429 751.359 C 679.952 743.686, 683.822 737.784, 682.039 738.227 C 681.433 738.377, 679.225 733.325, 677.133 727 C 673.580 716.263, 667.663 703, 666.427 703 C 666.127 703, 666.172 703.563, 666.526 704.250 C 667.327 705.804, 663.613 701.803, 654.302 691.080 C 645.596 681.054, 631.669 669.665, 623.500 665.892 C 611.340 660.275, 593.247 658.597, 576.849 661.564 M 324.209 663.964 C 324.909 665.084, 326.048 666, 326.741 666 C 327.433 666, 328 666.398, 328 666.883 C 328 667.369, 328.866 667.993, 329.925 668.270 C 333.264 669.143, 331.105 666.094, 326.846 663.921 L 322.938 661.928 324.209 663.964 M 712.161 676.502 C 711.440 680.901, 709.960 688.040, 708.874 692.366 C 706.854 700.409, 706.789 704.034, 708.787 697.256 C 710.661 690.896, 714.160 672.067, 713.807 670.236 C 713.623 669.283, 712.883 672.103, 712.161 676.502 M 336.594 674.506 C 333.431 676.900, 324.245 679.137, 320.480 678.430 C 317.355 677.844, 316.930 678.050, 315.929 680.642 C 315.226 682.462, 314.983 688.765, 315.261 698 C 315.752 714.326, 317.275 720.560, 324.180 734.500 C 328.084 742.381, 339.321 758.164, 344.436 762.950 L 347.054 765.399 355.277 763.701 C 362.058 762.300, 365.517 762.159, 375 762.897 C 390.399 764.097, 400.431 767.686, 411.500 775.956 C 415.760 779.139, 425.387 790.915, 424.719 792.125 C 424.598 792.343, 425.385 791.392, 426.467 790.011 C 427.549 788.630, 431.120 784.675, 434.403 781.222 L 440.370 774.945 435.720 770.222 C 430.438 764.858, 418.625 750.873, 410.614 740.500 C 402.284 729.713, 342.618 672.954, 339.691 673.032 C 339.036 673.049, 337.642 673.713, 336.594 674.506 M 526.876 673.733 L 530.251 674.145 526.876 677.823 L 523.500 681.500 527.250 678.054 C 529.313 676.158, 531 674.246, 531 673.804 C 531 673.362, 529.313 673.072, 527.250 673.160 L 523.500 673.320 526.876 673.733 M 506.323 674.922 C 501.275 675.252, 496.894 675.773, 496.586 676.081 C 495.848 676.819, 512.120 676.035, 518.500 675.025 C 523.187 674.283, 523.250 674.237, 519.500 674.279 C 517.300 674.303, 511.370 674.593, 506.323 674.922 M 655.545 687.225 C 657.655 689.824, 659.612 691.721, 659.892 691.441 C 660.173 691.161, 658.446 689.034, 656.054 686.716 L 651.707 682.500 655.545 687.225 M 306.320 696 C 306.320 699.575, 306.502 701.038, 306.723 699.250 C 306.945 697.462, 306.945 694.538, 306.723 692.750 C 306.502 690.962, 306.320 692.425, 306.320 696 M 415.250 719.723 C 413.462 719.945, 412 720.575, 412 721.122 C 412 721.670, 412.520 721.797, 413.155 721.405 C 413.855 720.972, 414.038 721.129, 413.620 721.806 C 412.587 723.478, 418.037 733.545, 424.557 742.006 C 430.377 749.558, 444.834 766.275, 445.969 766.764 C 446.306 766.909, 448.120 765.439, 450.001 763.499 L 453.420 759.971 449.460 756.831 C 441.408 750.448, 429.377 737.293, 425.305 730.418 C 422.998 726.524, 420.416 722.760, 419.566 722.055 C 418.717 721.350, 418.269 720.374, 418.570 719.887 C 418.871 719.399, 418.979 719.072, 418.809 719.160 C 418.639 719.248, 417.038 719.502, 415.250 719.723 M 665.728 772.722 C 667.503 772.943, 670.653 772.946, 672.728 772.730 C 674.802 772.513, 673.350 772.333, 669.500 772.328 C 665.650 772.324, 663.952 772.501, 665.728 772.722 M 691.728 773.722 C 693.503 773.943, 696.653 773.946, 698.728 773.730 C 700.802 773.513, 699.350 773.333, 695.500 773.328 C 691.650 773.324, 689.952 773.501, 691.728 773.722 M 315.250 782.728 C 317.313 782.944, 320.688 782.944, 322.750 782.728 C 324.813 782.513, 323.125 782.336, 319 782.336 C 314.875 782.336, 313.188 782.513, 315.250 782.728 M 359.750 798.732 C 362.087 798.943, 365.913 798.943, 368.250 798.732 C 370.587 798.522, 368.675 798.349, 364 798.349 C 359.325 798.349, 357.413 798.522, 359.750 798.732 M 711.728 812.722 C 713.503 812.943, 716.653 812.946, 718.728 812.730 C 720.802 812.513, 719.350 812.333, 715.500 812.328 C 711.650 812.324, 709.952 812.501, 711.728 812.722 M 321.750 813.723 C 323.538 813.945, 326.462 813.945, 328.250 813.723 C 330.038 813.502, 328.575 813.320, 325 813.320 C 321.425 813.320, 319.962 813.502, 321.750 813.723 M 684.750 813.732 C 687.087 813.943, 690.913 813.943, 693.250 813.732 C 695.587 813.522, 693.675 813.349, 689 813.349 C 684.325 813.349, 682.413 813.522, 684.750 813.732 M 652.750 814.737 C 655.638 814.939, 660.362 814.939, 663.250 814.737 C 666.138 814.535, 663.775 814.370, 658 814.370 C 652.225 814.370, 649.862 814.535, 652.750 814.737 M 356.750 815.732 C 359.087 815.943, 362.913 815.943, 365.250 815.732 C 367.587 815.522, 365.675 815.349, 361 815.349 C 356.325 815.349, 354.413 815.522, 356.750 815.732 M 622.750 815.737 C 625.638 815.939, 630.362 815.939, 633.250 815.737 C 636.138 815.535, 633.775 815.370, 628 815.370 C 622.225 815.370, 619.862 815.535, 622.750 815.737 M 398.314 816.749 C 407.561 816.914, 422.411 816.913, 431.314 816.748 C 440.216 816.582, 432.650 816.447, 414.500 816.448 C 396.350 816.448, 389.066 816.583, 398.314 816.749 M 526.750 816.749 C 538.438 816.909, 557.563 816.909, 569.250 816.749 C 580.938 816.589, 571.375 816.458, 548 816.458 C 524.625 816.458, 515.063 816.589, 526.750 816.749" stroke="none" fill="#709d9b" fill-rule="evenodd"/><path d="M 521.664 221.522 C 517.355 222.246, 513.530 223.153, 513.164 223.539 C 512.799 223.925, 514.300 223.961, 516.500 223.620 C 518.700 223.279, 522.638 222.718, 525.250 222.373 C 527.862 222.028, 530 221.353, 530 220.873 C 530 220.393, 529.888 220.046, 529.750 220.103 C 529.612 220.159, 525.974 220.797, 521.664 221.522 M 588.500 222.446 C 591.800 223.230, 595.400 223.872, 596.500 223.872 C 600.543 223.874, 594.629 222.214, 588.412 221.603 L 582.500 221.021 588.500 222.446 M 481 235 C 479.075 236.054, 478.077 236.935, 478.782 236.958 C 480.416 237.011, 487 234.282, 487 233.551 C 487 232.490, 484.469 233.101, 481 235 M 461 246.131 C 458.525 247.819, 455.864 249.806, 455.087 250.549 C 453.884 251.697, 453.996 251.814, 455.837 251.332 C 457.026 251.021, 458 250.369, 458 249.883 C 458 249.398, 458.337 249.071, 458.750 249.159 C 460.290 249.485, 462.931 247.755, 464.463 245.416 C 466.429 242.415, 466.460 242.409, 461 246.131 M 651 246.941 C 651 247.523, 651.477 248, 652.059 248 C 652.641 248, 652.871 248.400, 652.569 248.889 C 652.267 249.378, 653.703 251.056, 655.760 252.618 L 659.500 255.459 656.177 251.243 C 652.509 246.590, 651 245.336, 651 246.941 M 448.572 255.028 C 446.411 256.663, 444.258 258, 443.788 258 C 442.722 258, 431.490 269.942, 427.663 275.144 C 423.159 281.268, 425.143 279.621, 430.850 272.500 C 433.715 268.925, 436.747 266, 437.588 266 C 438.430 266, 438.840 265.550, 438.500 265 C 438.160 264.450, 438.345 264, 438.912 264 C 440.392 264, 449 257.786, 449 256.718 C 449 256.224, 450.012 254.976, 451.250 253.944 C 454.802 250.980, 452.908 251.747, 448.572 255.028 M 661.103 259.250 C 662.222 261.038, 664.680 264.975, 666.565 268 C 668.450 271.025, 669.994 273.050, 669.996 272.500 C 670 271.334, 660.310 256, 659.568 256 C 659.293 256, 659.983 257.462, 661.103 259.250 M 524.179 273.068 C 520.756 274.779, 516.442 277.987, 514.431 280.318 C 510.945 284.357, 505.490 293.824, 506.225 294.558 C 506.422 294.756, 509.029 291.711, 512.017 287.793 C 515.873 282.737, 519.490 279.368, 524.475 276.190 C 532.946 270.791, 533.889 270, 531.860 270 C 531.013 270, 527.556 271.381, 524.179 273.068 M 564.741 270.592 C 564.415 270.918, 562.428 271.802, 560.324 272.558 L 556.500 273.931 563.500 273.781 C 567.350 273.699, 569.712 273.456, 568.750 273.242 C 567.788 273.028, 567 272.211, 567 271.427 C 567 269.969, 565.805 269.528, 564.741 270.592 M 485.622 275.750 C 486.520 279.493, 486.545 279.503, 489.501 277.178 C 492.029 275.189, 492.048 275.096, 490.119 274.064 C 486.468 272.110, 484.890 272.701, 485.622 275.750 M 396.184 295.091 C 396.436 295.866, 399.904 297.650, 403.891 299.055 C 407.878 300.459, 411.496 302.185, 411.931 302.888 C 412.532 303.862, 412.880 303.754, 413.384 302.441 C 414.199 300.318, 414.837 300.753, 406.500 297.743 C 402.650 296.353, 398.651 294.871, 397.614 294.449 C 396.227 293.885, 395.848 294.055, 396.184 295.091 M 714.647 306.500 C 716.693 322.803, 716.914 323.915, 716.434 315.500 C 716.184 311.100, 715.538 306.150, 714.999 304.500 C 714.202 302.060, 714.136 302.434, 714.647 306.500 M 675.459 312.067 C 674.601 313.455, 674.917 313.708, 678.502 314.500 C 680.773 315.001, 681.136 314.903, 680 314.096 C 679.175 313.510, 678.950 313.017, 679.500 313 C 680.574 312.967, 677.962 311.041, 676.809 311.015 C 676.429 311.007, 675.821 311.480, 675.459 312.067 M 517.538 327.100 C 513.158 328.175, 506.248 330.850, 502.181 333.044 L 494.787 337.032 487.967 333.620 C 479.017 329.143, 468.743 327.254, 461.911 328.831 C 441.867 333.458, 429.767 344.364, 422.890 364 C 420.942 369.564, 420.613 372.516, 420.606 384.500 C 420.592 411.229, 426.912 430.114, 441.336 446.442 C 449.978 456.225, 473.156 472, 478.887 472 C 479.961 472, 485.713 473.178, 491.670 474.618 C 501.610 477.021, 503.733 477.195, 517.500 476.724 C 557.218 475.368, 587.983 460.572, 602.855 435.674 C 609.154 425.128, 611.333 418.376, 611.793 407.979 C 612.780 385.660, 605.384 367.430, 588.613 350.848 C 566.664 329.145, 542.325 321.013, 517.538 327.100 M 674 328.943 C 667.018 332.643, 661.420 339.683, 655.464 352.256 C 649.329 365.205, 647.719 373.343, 647.603 392 C 647.506 407.614, 647.651 408.939, 650.307 416.675 C 651.851 421.171, 653.842 425.446, 654.731 426.175 C 656.160 427.347, 656.271 427.211, 655.694 425 C 655.336 423.625, 654.288 417.325, 653.367 411 C 650.087 388.484, 654.724 365.793, 666.241 348 C 670.563 341.323, 674.667 337.368, 682.250 332.574 C 685.413 330.575, 688 328.502, 688 327.969 C 688 326.263, 677.706 326.979, 674 328.943 M 378.207 349.500 C 378.161 355, 378.451 362.767, 378.851 366.760 C 379.317 371.400, 379.204 374.451, 378.540 375.212 C 377.968 375.867, 378.285 375.810, 379.245 375.084 C 380.658 374.015, 380.881 372.788, 380.418 368.632 C 380.103 365.809, 379.496 358.100, 379.068 351.500 L 378.289 339.500 378.207 349.500 M 392.493 368.832 C 388.816 374.387, 387.970 378.260, 387.931 389.704 C 387.891 401.016, 389.027 408.703, 392.136 418.180 C 394.612 425.726, 396.322 429.193, 398.434 430.945 C 400.751 432.869, 400.489 429.982, 397.563 421.361 C 392.323 405.921, 391.836 379.016, 396.573 366.670 C 397.776 363.534, 395.039 364.985, 392.493 368.832 M 543 376.594 C 532.595 381.101, 526.792 393.945, 531.267 402.563 C 534.035 407.893, 542.098 416.012, 547.392 418.801 C 551.896 421.173, 553.623 421.491, 562 421.492 C 572.761 421.495, 577.547 419.704, 582.493 413.826 C 584.981 410.869, 585.189 410.021, 584.714 404.781 C 583.354 389.787, 567.202 374.940, 552.357 375.039 C 549.136 375.061, 544.925 375.760, 543 376.594 M 373.458 386.151 C 371.196 393.361, 370.462 406.734, 371.940 413.792 C 372.597 416.932, 373.230 420.175, 373.346 421 C 373.461 421.825, 373.908 423.063, 374.337 423.750 C 374.767 424.438, 374.859 425.419, 374.543 425.931 C 374.226 426.443, 374.432 427.149, 375 427.500 C 375.568 427.851, 375.788 428.535, 375.488 429.019 C 375.189 429.503, 375.857 430.388, 376.972 430.985 C 378.087 431.582, 379 432.640, 379 433.336 C 379 435.073, 381.344 439.983, 382.179 439.992 C 382.552 439.996, 383.454 440.563, 384.182 441.250 C 388.591 445.408, 388.843 444.725, 384.828 439.500 C 382.292 436.200, 379.540 432.150, 378.713 430.500 C 372.481 418.065, 370.443 400.436, 373.860 388.514 C 376.218 380.286, 375.895 378.384, 373.458 386.151 M 441.500 383.599 C 436.870 386.121, 432.380 390.799, 430.714 394.837 C 428.193 400.947, 426.557 414.516, 427.939 417.853 C 430.495 424.025, 442.991 427.120, 451.312 423.643 C 458.286 420.729, 463.763 413.002, 466.003 402.919 C 467.124 397.872, 467.048 396.897, 465.210 392.741 C 461.391 384.109, 449.197 379.407, 441.500 383.599 M 546.655 387.829 C 544.387 390.335, 544.580 392.593, 547.223 394.443 C 551.205 397.232, 558 395.788, 558 392.153 C 558 390.042, 552.873 386, 550.195 386 C 549.158 386, 547.565 386.823, 546.655 387.829 M 447.053 394.436 C 446.214 395.447, 446.162 396.433, 446.876 397.768 C 448.628 401.042, 450.331 401.819, 454.274 401.145 L 458.047 400.500 454.951 396.750 C 451.698 392.810, 449.047 392.034, 447.053 394.436 M 730.405 406.257 C 729.253 410.241, 728.008 414.400, 727.640 415.500 C 727.271 416.600, 728.098 415.125, 729.477 412.222 C 731.693 407.559, 733.899 398.988, 732.878 399.007 C 732.670 399.011, 731.557 402.273, 730.405 406.257 M 477.689 407.217 C 472.876 408.493, 469.267 413.656, 468.382 420.533 C 468.030 423.265, 466.893 426.915, 465.855 428.644 C 464.392 431.082, 464.188 432.363, 464.945 434.355 C 466.964 439.666, 481.810 447.956, 492.022 449.475 C 498.180 450.392, 509.750 447.815, 518.818 443.509 C 527.984 439.157, 537.991 432.001, 537.710 430 C 537.595 429.175, 535.764 427.652, 533.643 426.616 L 529.785 424.733 524.539 430.236 C 520.315 434.668, 518.048 436.145, 512.897 437.822 C 499.816 442.080, 491.170 442.319, 488.008 438.509 C 486.985 437.277, 486.392 437.256, 484.149 438.378 C 480.774 440.066, 475.680 438.809, 473.545 435.761 C 470.676 431.664, 471.661 431.126, 478.010 433.320 C 483.594 435.250, 484.641 435.309, 492.760 434.145 C 501.744 432.858, 507.918 429.890, 510.103 425.808 C 512.456 421.410, 506.813 411.476, 499.982 407.991 C 495.639 405.775, 484.575 405.391, 477.689 407.217 M 716.067 432.273 C 712.388 436.489, 711.851 437.370, 714.404 435 C 717.760 431.884, 722.651 425.962, 721.818 426.023 C 721.643 426.036, 719.055 428.849, 716.067 432.273 M 696 444.702 C 695.175 445.001, 691.575 446.578, 688 448.207 C 684.425 449.835, 679.250 451.776, 676.500 452.518 C 673.750 453.261, 672.445 453.898, 673.601 453.934 C 676.069 454.012, 680.823 452.552, 686.739 449.900 C 689.071 448.855, 691.658 448, 692.489 448 C 693.320 448, 694 447.637, 694 447.193 C 694 446.749, 695.237 445.897, 696.750 445.299 C 699.502 444.212, 698.829 443.676, 696 444.702 M 392.750 449.662 C 393.438 449.940, 394 450.831, 394 451.642 C 394 452.454, 394.450 452.840, 395 452.500 C 395.550 452.160, 396 452.286, 396 452.780 C 396 453.275, 397.238 454.239, 398.750 454.924 C 401.051 455.965, 400.847 455.590, 397.500 452.626 C 395.300 450.677, 393.050 449.100, 392.500 449.121 C 391.950 449.141, 392.063 449.385, 392.750 449.662 M 636.972 495.821 C 623.971 500.114, 611.864 508.855, 603.799 519.772 C 598.809 526.527, 592.303 540.192, 587.590 553.815 C 585.628 559.489, 583.342 565.101, 582.511 566.288 C 580.243 569.525, 580.602 570, 585.318 570 C 592.234 570, 603 573.633, 603 575.966 C 603 576.363, 595.688 576.980, 586.750 577.338 C 567.340 578.116, 553.321 580.824, 534.907 587.352 C 507.493 597.071, 488.754 608.865, 468.964 628.857 C 463.169 634.711, 456.082 641.543, 453.214 644.041 C 448.211 648.398, 446.474 652, 449.376 652 C 450.132 652, 453.295 650.875, 456.404 649.500 C 462.714 646.709, 465 646.384, 465 648.277 C 465 650.387, 462.102 653.873, 456.985 657.918 L 452.150 661.739 457.174 662.334 C 461.434 662.839, 463.067 662.490, 467.916 660.043 C 473.892 657.026, 474.964 657.100, 476.837 660.659 C 477.831 662.548, 477.533 663.203, 474.451 665.909 C 472.515 667.609, 469.934 669.007, 468.715 669.015 C 467.497 669.024, 465.825 669.467, 465 670 C 463.765 670.798, 463.863 670.972, 465.559 670.985 C 466.691 670.993, 468.491 671.661, 469.559 672.468 C 472.273 674.521, 477.713 674.313, 482.902 671.959 C 485.323 670.860, 488.127 670.223, 489.134 670.543 C 490.140 670.862, 495.193 669.971, 500.363 668.563 C 505.923 667.048, 510.941 666.238, 512.650 666.580 C 516.738 667.398, 544.495 662.381, 555.370 658.859 C 575.557 652.322, 590.626 650.303, 605.410 652.156 C 617.648 653.689, 618.348 653.615, 628.882 649.650 C 657.474 638.890, 676.615 615.513, 684.081 582.239 C 687.016 569.157, 687.886 545.646, 685.722 537.915 C 684.888 534.937, 683.924 530.868, 683.580 528.872 C 682.730 523.935, 673.952 509.562, 668.230 503.738 C 660.234 495.599, 647.451 492.361, 636.972 495.821 M 259.645 555.095 C 260.168 561.790, 258.530 563.235, 249.500 564.041 C 247.427 564.226, 252.041 565.256, 260.218 566.433 L 264.935 567.113 264.045 564.306 C 263.555 562.763, 262.889 559.891, 262.564 557.924 C 262.240 555.957, 261.373 553.524, 260.637 552.519 C 259.459 550.907, 259.341 551.214, 259.645 555.095 M 268 559.134 C 268 559.758, 268.521 562.008, 269.158 564.134 C 270.165 567.493, 270.706 568, 273.283 568 C 277.892 568, 300.284 572.760, 306.348 575.029 C 313.107 577.558, 322.212 583.380, 327.960 588.847 C 330.361 591.131, 332.575 593, 332.879 593 C 333.184 593, 335.321 592.279, 337.629 591.397 L 341.825 589.795 333.663 582.325 C 320.542 570.318, 305.570 563.888, 280.619 559.546 C 270.021 557.701, 268 557.635, 268 559.134 M 594.559 563.780 C 586.362 566.588, 582.804 569.585, 589.170 568.320 C 593.869 567.387, 603 563.222, 603 562.013 C 603 560.764, 603.929 560.570, 594.559 563.780 M 376.500 577.131 C 365.288 578.537, 354.990 580.860, 348 583.561 L 341.500 586.072 352 585.320 C 365.789 584.334, 402.943 584.294, 410.250 585.259 C 414.850 585.866, 416 585.740, 416 584.631 C 416 582.103, 413.418 581.032, 401.217 578.505 C 388.319 575.833, 387.303 575.776, 376.500 577.131 M 271.346 601.623 C 272.212 603.340, 273.837 604.986, 274.957 605.279 C 276.078 605.572, 277.417 606.866, 277.934 608.156 C 278.451 609.445, 278.902 610.130, 278.937 609.679 C 279.008 608.749, 282 611.505, 282 612.500 C 282 612.854, 282.563 613.746, 283.250 614.482 C 283.938 615.219, 286.019 617.653, 287.875 619.892 C 289.732 622.131, 291.593 623.751, 292.012 623.493 C 294.267 622.099, 297.494 632.570, 296.012 636.470 C 295.455 637.933, 295.040 640.113, 295.089 641.315 C 295.139 642.523, 295.735 641.486, 296.423 638.994 C 297.108 636.516, 298.221 633.455, 298.897 632.192 C 300.045 630.047, 299.398 629.118, 289.150 618.197 C 283.112 611.764, 276.282 604.700, 273.972 602.500 C 269.810 598.536, 269.786 598.528, 271.346 601.623 M 717.355 633.500 C 717.352 638.450, 717.521 640.601, 717.731 638.280 C 717.940 635.959, 717.943 631.909, 717.736 629.280 C 717.530 626.651, 717.358 628.550, 717.355 633.500 M 310.225 634.823 C 302.803 635.876, 302.316 654.280, 309.486 662.800 C 312.159 665.978, 321.069 670.311, 323.899 669.810 C 325.345 669.554, 325.506 668.954, 324.824 666.357 C 324.370 664.628, 323.330 662.957, 322.514 662.644 C 321.282 662.171, 321.233 662.400, 322.227 663.992 C 323.736 666.408, 322.456 667.820, 320.202 666.225 C 319.266 665.563, 316.868 664.135, 314.873 663.053 C 311.238 661.081, 309.504 658.612, 310.556 656.910 C 311.412 655.524, 312.405 655.785, 316.285 658.418 C 319.132 660.351, 319.958 660.552, 320.393 659.418 C 320.771 658.433, 322.608 658, 326.410 658 C 333.953 658, 334.274 656.418, 326.888 655.646 C 319.590 654.883, 319 654.569, 319 651.441 C 319 649.462, 319.520 648.987, 321.750 648.930 C 323.262 648.891, 325.384 648.514, 326.464 648.092 C 328.028 647.480, 327.587 647.190, 324.292 646.663 C 321.112 646.154, 319.343 645.051, 316.633 641.884 C 314.694 639.620, 312.972 637.032, 312.804 636.133 C 312.605 635.066, 311.712 634.612, 310.225 634.823 M 294.168 649 C 294.111 652.063, 294.902 656.925, 295.954 659.972 C 296.993 662.982, 297.766 665.682, 297.672 665.972 C 297.577 666.263, 300.087 669.079, 303.250 672.231 C 306.413 675.382, 309 677.451, 309 676.827 C 309 676.202, 307.227 674.175, 305.061 672.320 C 299.672 667.707, 295.980 659.778, 295.037 650.787 C 294.290 643.672, 294.269 643.630, 294.168 649 M 309 649.465 C 309 652.097, 311.490 654, 314.934 654 C 317.799 654, 317.517 651.552, 314.365 649.073 C 310.846 646.304, 309 646.439, 309 649.465 M 511.050 677.108 C 504.753 677.560, 499.063 678.058, 498.405 678.215 C 497.747 678.372, 500.230 681.813, 503.921 685.862 L 510.634 693.223 519.246 684.612 C 526.941 676.916, 527.572 676.015, 525.179 676.143 C 523.705 676.221, 517.348 676.656, 511.050 677.108 M 306.682 711.500 C 307.062 713.700, 307.402 716.695, 307.437 718.155 C 307.471 719.614, 307.837 720.600, 308.250 720.345 C 308.663 720.091, 309.020 720.471, 309.045 721.191 C 309.070 721.911, 309.740 723.850, 310.535 725.500 C 312.170 728.894, 312.120 728.671, 308.307 715.500 C 307.033 711.100, 306.302 709.300, 306.682 711.500 M 479.500 711.667 C 467.801 712.231, 451.310 714.145, 437 716.600 C 417.070 720.019, 418.417 719.332, 421.871 724.321 C 423.463 726.619, 426.423 731.067, 428.450 734.205 C 431.892 739.534, 446.427 754.268, 451.561 757.632 C 453.577 758.953, 454.183 758.957, 456.687 757.662 C 458.249 756.854, 462.108 755.443, 465.263 754.526 C 468.418 753.609, 471 752.291, 471 751.597 C 471 748.960, 481.763 729.131, 487.750 720.739 C 491.188 715.920, 494 711.757, 494 711.489 C 494 711.018, 492.631 711.035, 479.500 711.667 M 311.771 730.207 C 311.069 732.113, 312.006 734.114, 313.243 733.350 C 313.934 732.923, 314.115 733.453, 313.751 734.844 C 313.441 736.030, 313.622 737, 314.153 737 C 314.684 737, 314.797 737.520, 314.405 738.155 C 313.930 738.923, 314.134 739.035, 315.015 738.490 C 316.008 737.877, 316.159 738.144, 315.617 739.555 C 315.220 740.591, 315.211 741.122, 315.598 740.735 C 315.985 740.348, 316.911 740.812, 317.655 741.766 C 318.399 742.719, 317.629 740.361, 315.944 736.524 C 312.425 728.509, 312.406 728.481, 311.771 730.207 M 331.502 761.936 C 331.967 762.725, 332.235 765.789, 332.098 768.744 L 331.850 774.117 335.333 771.834 C 338.809 769.555, 338.812 769.545, 337.016 767.025 C 334.953 764.132, 330.224 759.767, 331.502 761.936 M 467.500 763.328 C 461.284 765.765, 458.075 768.112, 452.228 774.492 C 447.711 779.422, 445.549 782.843, 443.563 788.201 C 442.107 792.128, 440.147 795.925, 439.208 796.639 C 436.030 799.053, 440.195 798.178, 444.500 795.526 C 446.700 794.171, 449.625 793.053, 451 793.041 C 453.604 793.018, 464 798.449, 464 799.832 C 464 800.268, 462.623 801.642, 460.940 802.887 C 458.664 804.569, 458.149 805.475, 458.931 806.417 C 459.509 807.114, 459.687 807.980, 459.325 808.342 C 458.280 809.387, 459.467 809.121, 463.628 807.378 C 466.551 806.153, 469.240 805.902, 474.605 806.353 C 482.143 806.986, 496.454 805.152, 503.500 802.650 L 507.500 801.229 504.500 800.512 C 493.301 797.833, 490.720 796.903, 486.578 794.054 C 479.230 788.998, 472.341 776.500, 471.805 767.250 C 471.637 764.363, 471.275 762.035, 471 762.076 C 470.725 762.118, 469.150 762.681, 467.500 763.328 M 369.500 764.052 C 358.816 765.599, 348.784 770.813, 338.812 780 C 333.811 784.608, 332.756 786.170, 332.306 789.632 C 332.010 791.904, 332.242 794.604, 332.820 795.632 C 333.718 797.228, 333.859 797.032, 333.784 794.285 C 333.737 792.516, 334.271 790.379, 334.971 789.535 C 336.888 787.225, 341.613 787.610, 343.445 790.225 L 345.004 792.451 348.120 788.670 C 350.514 785.767, 351.845 784.961, 353.860 785.195 C 355.437 785.378, 356.619 786.217, 356.824 787.299 C 357.363 790.140, 354.283 794, 351.477 794 C 347.750 794, 348.499 795.533, 352.866 796.842 C 361.533 799.438, 412.670 797.577, 419.250 794.426 C 423.649 792.319, 423.821 791.261, 420.593 786.147 C 411.640 771.965, 387.361 761.465, 369.500 764.052 M 757.036 773.052 C 754.266 776.380, 752 779.530, 752 780.052 C 752 780.573, 753.237 780.993, 754.750 780.985 C 756.263 780.976, 757.050 780.639, 756.500 780.235 C 755.405 779.430, 754.847 775.949, 755.868 776.289 C 756.215 776.405, 756.574 776.100, 756.665 775.612 C 756.755 775.123, 757.205 774.448, 757.665 774.112 C 758.858 773.238, 763.158 767, 762.566 767 C 762.295 767, 759.807 769.723, 757.036 773.052 M 665.583 769.908 L 663.690 772 676.095 771.807 C 683.266 771.696, 685.768 771.462, 682.026 771.254 C 678.465 771.055, 675.279 770.451, 674.945 769.911 C 674.611 769.371, 672.794 768.679, 670.907 768.372 C 668.239 767.939, 667.056 768.281, 665.583 769.908 M 343.750 796.110 C 341.490 800.052, 341.544 801, 344.031 801 C 346.526 801, 347.224 799.354, 346.245 795.779 L 345.500 793.058 343.750 796.110 M 451.400 800.400 C 448.852 802.948, 448.011 804.639, 448.044 807.150 L 448.088 810.500 450.058 806.770 C 451.141 804.718, 453.371 802.046, 455.014 800.832 C 456.656 799.617, 458 798.259, 458 797.812 C 458 795.900, 454.545 797.255, 451.400 800.400 M 740 811.973 C 728.175 812.889, 720.300 813.832, 722.500 814.069 C 724.700 814.306, 728.300 814.182, 730.500 813.794 C 732.700 813.405, 738.100 813.025, 742.500 812.949 C 746.900 812.873, 755 812.237, 760.500 811.536 C 774.149 809.796, 765.826 809.974, 740 811.973" stroke="none" fill="#ffece5" fill-rule="evenodd"/><path d="M 0 520.001 L 0 1040.002 519.750 1039.751 L 1039.500 1039.500 1039.751 519.750 L 1040.002 0 520.001 0 L 0 0 0 520.001 M 0.496 520.500 C 0.496 806.500, 0.610 923.351, 0.750 780.168 C 0.890 636.986, 0.890 402.986, 0.750 260.168 C 0.610 117.351, 0.496 234.500, 0.496 520.500 M 529.500 189.977 C 512.992 191.887, 486.524 199.978, 472.500 207.400 C 459.592 214.231, 449.665 220.087, 447.250 222.293 C 446.012 223.423, 445 224.101, 445 223.799 C 445 222.750, 417.477 248.109, 416.789 249.791 C 416.630 250.181, 416.050 250.350, 415.500 250.167 C 414.950 249.983, 414.844 250.177, 415.264 250.597 C 415.684 251.018, 414.941 252.518, 413.613 253.931 C 412.285 255.344, 408.645 260.081, 405.526 264.457 C 402.406 268.834, 398.948 273.049, 397.841 273.824 C 396.598 274.695, 396.016 275.954, 396.320 277.116 C 396.591 278.151, 396.335 279.293, 395.752 279.654 C 395.077 280.071, 394.982 279.798, 395.492 278.905 C 396.120 277.803, 396.017 277.755, 395.013 278.683 C 394.309 279.334, 393.626 280.909, 393.494 282.183 C 393.097 286.035, 393.041 286.143, 391.845 285.405 C 391.159 284.980, 390.961 285.128, 391.358 285.771 C 392.199 287.131, 390.001 292.119, 388.869 291.419 C 388.408 291.134, 388.286 292.385, 388.599 294.200 C 389.033 296.716, 388.913 297.144, 388.094 296 C 387.221 294.782, 387.047 294.969, 387.165 297 C 387.244 298.375, 386.115 303.348, 384.655 308.052 C 383.195 312.755, 382 317.394, 382 318.361 C 382 319.393, 381.542 319.835, 380.891 319.432 C 380.104 318.947, 379.991 319.985, 380.500 323 C 380.939 325.597, 380.851 327.026, 380.275 326.670 C 379.697 326.313, 379.409 331.969, 379.532 341.294 C 379.687 353.097, 379.580 354.598, 379.055 348 L 378.378 339.500 378.251 349.500 C 378.181 355, 378.451 362.767, 378.851 366.760 C 379.317 371.408, 379.205 374.430, 378.540 375.157 C 377.800 375.966, 377.863 376.089, 378.758 375.583 C 379.752 375.021, 379.773 375.403, 378.861 377.405 C 378.227 378.798, 377.329 379.703, 376.865 379.417 C 376.402 379.130, 376.319 379.668, 376.681 380.612 C 377.115 381.743, 376.957 382.092, 376.217 381.634 C 374.564 380.613, 371.888 390.107, 371.272 399.178 C 370.713 407.418, 371.701 417.102, 372.903 415.158 C 373.304 414.509, 373.535 415.895, 373.416 418.239 C 373.298 420.582, 373.644 423.043, 374.186 423.706 C 374.729 424.370, 374.901 425.351, 374.570 425.887 C 374.238 426.423, 374.432 427.149, 375 427.500 C 375.568 427.851, 375.788 428.535, 375.488 429.019 C 374.813 430.112, 378.479 432.187, 379.421 431.245 C 379.798 430.869, 379.814 431.322, 379.457 432.252 C 378.595 434.498, 381.046 439.880, 383.249 440.579 C 384.212 440.885, 385 441.554, 385 442.067 C 385 442.580, 385.477 443, 386.059 443 C 386.641 443, 386.797 442.480, 386.405 441.845 C 385.959 441.124, 386.131 440.963, 386.862 441.415 C 387.506 441.813, 387.818 442.486, 387.556 442.910 C 387.293 443.335, 388.423 444.676, 390.067 445.891 C 391.711 447.107, 392.792 448.528, 392.469 449.050 C 392.146 449.573, 392.359 450, 392.941 450 C 393.523 450, 394 450.702, 394 451.559 C 394 452.416, 394.450 452.840, 395 452.500 C 395.550 452.160, 396 452.328, 396 452.874 C 396 453.691, 399.035 455.256, 401 455.451 C 401.275 455.479, 404.425 456.851, 408 458.501 C 416.579 462.460, 428.063 462.781, 434.781 459.250 L 439.061 457 442.092 460.452 C 443.759 462.351, 446.002 464.183, 447.076 464.524 C 448.150 464.865, 448.771 465.562, 448.456 466.072 C 448.140 466.582, 448.385 467, 449 467 C 449.615 467, 449.797 467.520, 449.405 468.155 C 449.012 468.789, 449.103 469.054, 449.606 468.743 C 450.110 468.432, 452.810 469.825, 455.608 471.839 C 459.357 474.538, 460.646 476.091, 460.514 477.750 C 460.410 479.048, 460.898 480, 461.667 480 C 463.678 480, 463.333 481.388, 459.364 489.270 C 455.138 497.662, 451.298 503, 449.488 503 C 448.787 503, 447.931 503.739, 447.584 504.641 C 447.032 506.080, 447.172 506.111, 448.719 504.891 C 450.228 503.701, 447.132 507.619, 439.663 516.352 C 438.653 517.534, 438.163 517.825, 438.574 517 C 438.984 516.175, 438.935 515.851, 438.465 516.279 C 437.994 516.707, 437.522 517.649, 437.416 518.371 C 437.118 520.403, 430.373 529.351, 428.093 530.741 C 426.970 531.425, 426.298 532.613, 426.595 533.387 C 426.892 534.160, 426.207 535.442, 425.074 536.236 C 423.940 537.030, 423.238 537.904, 423.513 538.180 C 424.184 538.851, 412.506 552.415, 406.591 557.835 C 400.312 563.588, 391.569 567.542, 379.449 570.110 C 367.394 572.664, 359.880 575.370, 357.481 578.021 C 356.496 579.109, 356.097 580.019, 356.595 580.042 C 357.093 580.066, 354.149 581.263, 350.054 582.703 C 344.010 584.828, 342.529 585.055, 342.194 583.911 C 341.481 581.474, 328.476 569.649, 322.682 566.169 C 313.493 560.650, 301.464 555.936, 291.202 553.831 C 277.906 551.105, 261.244 549.156, 260.195 550.205 C 259.721 550.679, 259.481 552.964, 259.661 555.283 C 260.078 560.639, 258.339 562.922, 253.367 563.550 C 251.240 563.819, 248.656 564.303, 247.625 564.626 C 246.274 565.050, 245.970 564.857, 246.539 563.937 C 247.107 563.017, 246.840 562.847, 245.582 563.330 C 244.622 563.699, 242.788 564, 241.507 564 C 240.160 564, 239.258 564.550, 239.368 565.304 C 239.474 566.021, 245.621 572.819, 253.030 580.410 C 260.438 588.001, 266.402 594.571, 266.282 595.010 C 266.162 595.449, 266.837 596.414, 267.782 597.154 C 269.361 598.391, 269.383 598.338, 268.053 596.500 C 267.256 595.400, 268.920 596.709, 271.749 599.410 C 274.579 602.110, 276.805 604.585, 276.697 604.910 C 276.589 605.234, 276.950 605.651, 277.500 605.835 C 279.676 606.564, 280.851 608.225, 280.267 609.747 C 279.818 610.917, 280.083 611.182, 281.253 610.733 C 282.174 610.380, 283.416 610.837, 284.177 611.809 C 285.366 613.329, 285.323 613.361, 283.750 612.128 C 281.658 610.487, 281.262 612.352, 283.250 614.482 C 283.938 615.219, 286.019 617.653, 287.875 619.892 C 289.732 622.131, 291.678 623.699, 292.201 623.376 C 292.723 623.053, 292.110 621.599, 290.839 620.145 C 289.568 618.690, 290.434 619.279, 292.764 621.453 C 296.973 625.381, 298.057 626.772, 295.844 625.404 C 295.001 624.882, 294.903 625.610, 295.484 628.095 C 295.921 629.968, 296.206 632.625, 296.117 634 C 296.028 635.375, 295.907 638.975, 295.848 642 C 295.774 645.832, 295.499 646.894, 294.941 645.500 C 294.401 644.151, 294.123 645.454, 294.086 649.500 C 294.046 653.767, 294.315 655.067, 295.014 654 C 295.706 652.944, 295.803 653.508, 295.343 655.905 C 294.830 658.569, 294.973 659.135, 295.998 658.501 C 296.870 657.962, 297.068 658.081, 296.590 658.854 C 295.591 660.470, 296.909 664.175, 298.198 663.377 C 298.923 662.930, 298.944 663.278, 298.265 664.491 C 297.467 665.916, 298.052 666.953, 301.305 669.878 C 303.520 671.870, 305.821 673.350, 306.417 673.167 C 307.012 672.983, 307.161 673.172, 306.746 673.587 C 306.332 674.001, 306.666 675.368, 307.489 676.624 C 308.681 678.442, 308.756 679.477, 307.857 681.704 C 306.545 684.953, 305.918 710.212, 307.057 713.960 C 307.481 715.357, 307.867 715.863, 307.914 715.083 C 307.961 714.304, 308.217 713.884, 308.483 714.150 C 308.748 714.415, 308.538 716.178, 308.015 718.066 C 307.115 721.319, 307.149 721.394, 308.667 719.500 C 310.160 717.636, 310.224 717.629, 309.607 719.403 C 308.731 721.921, 310.829 728.224, 312.251 727.345 C 312.976 726.897, 313.091 727.312, 312.596 728.586 C 311.754 730.751, 311.718 730.971, 311.882 732.872 C 311.978 733.991, 312.283 734.010, 313.532 732.974 C 314.875 731.859, 314.940 732.029, 314.057 734.351 C 313.370 736.158, 313.378 737, 314.084 737 C 314.653 737, 314.833 737.563, 314.485 738.250 C 314.137 738.938, 314.560 738.626, 315.426 737.559 C 317.276 735.278, 317.493 736.207, 315.836 739.316 C 314.747 741.360, 314.792 741.404, 316.528 740 C 317.880 738.907, 318.162 738.869, 317.564 739.861 C 317.024 740.758, 317.570 741.950, 319.170 743.361 C 320.503 744.537, 321.102 745.275, 320.500 745 C 319.898 744.725, 320.382 745.400, 321.574 746.500 C 322.767 747.600, 324.270 749.518, 324.914 750.762 C 325.557 752.007, 328.097 755.497, 330.558 758.518 C 333.018 761.539, 334.462 763.896, 333.766 763.755 C 332.899 763.580, 332.342 765.390, 332 769.500 C 331.661 773.566, 331.097 775.419, 330.250 775.250 C 329.563 775.113, 329.113 775.563, 329.250 776.250 C 329.388 776.938, 328.938 777.388, 328.250 777.250 C 327.563 777.113, 327.071 777.338, 327.159 777.750 C 327.723 780.415, 325.603 781.673, 320.208 781.873 C 311.114 782.211, 276.351 785.896, 266.500 787.567 C 243.388 791.487, 241.737 800.107, 262.980 805.944 C 267.094 807.075, 271.594 808.007, 272.980 808.015 C 274.896 808.027, 275.153 808.250, 274.052 808.947 C 273.094 809.553, 274.110 809.722, 277.052 809.448 C 280.704 809.107, 281.052 809.205, 279 809.997 C 277.119 810.721, 278.110 810.856, 283 810.541 C 287.734 810.235, 288.821 810.372, 287 811.046 C 285.133 811.737, 285.893 811.855, 290 811.511 C 294.005 811.176, 295.092 811.335, 294 812.095 C 292.923 812.844, 294.192 812.965, 298.500 812.525 C 302.994 812.066, 304.123 812.189, 303 813.014 C 301.884 813.834, 303.418 813.958, 309 813.500 C 313.125 813.161, 315.980 813.248, 315.343 813.692 C 314.707 814.137, 318.869 814.430, 324.592 814.344 C 330.315 814.258, 335.254 814.603, 335.568 815.110 C 335.882 815.617, 336.535 815.787, 337.020 815.487 C 337.506 815.187, 348.612 815.429, 361.701 816.025 C 386.350 817.146, 584.781 817.529, 611 816.506 C 665.869 814.366, 717.256 813.096, 721.500 813.776 C 724.250 814.217, 728.300 814.249, 730.500 813.847 C 732.700 813.444, 737.375 813.089, 740.888 813.058 C 751.577 812.961, 770.816 810.685, 767.984 809.852 C 766.605 809.446, 768.391 809.308, 772 809.541 C 776.899 809.857, 777.884 809.722, 776 808.994 C 774.047 808.240, 774.704 808.117, 779 808.434 C 782.797 808.714, 783.881 808.561, 782.500 807.939 C 781.124 807.320, 782.059 807.191, 785.500 807.527 C 789.069 807.876, 789.928 807.747, 788.500 807.078 C 786.714 806.241, 786.821 806.114, 789.500 805.891 C 791.150 805.753, 794.075 805.686, 796 805.741 C 797.925 805.796, 798.644 805.606, 797.599 805.318 C 796.227 804.941, 797.134 804.309, 800.851 803.050 C 814.197 798.533, 812.771 792.043, 797.562 788.072 C 793.196 786.933, 788.782 786, 787.753 786 C 786.609 786, 786.155 785.558, 786.586 784.862 C 787.089 784.046, 786.255 783.917, 783.645 784.407 C 781.319 784.843, 780 784.708, 780 784.033 C 780 783.354, 778.517 783.213, 775.847 783.640 C 772.676 784.147, 771.875 784.012, 772.459 783.066 C 773.052 782.107, 771.929 781.990, 767.471 782.547 C 763.221 783.078, 761.905 782.964, 762.432 782.109 C 762.951 781.270, 761.963 781.118, 758.824 781.557 C 755.618 782.005, 754.888 781.886, 756 781.096 C 756.825 780.510, 757.034 780.024, 756.464 780.015 C 755.895 780.007, 755.429 779.132, 755.429 778.071 C 755.429 777.011, 755.670 776.223, 755.964 776.321 C 756.259 776.420, 756.500 776.050, 756.500 775.500 C 756.500 774.950, 756.129 774.624, 755.676 774.775 C 755.222 774.926, 755.124 774.608, 755.458 774.068 C 755.791 773.529, 756.612 773.275, 757.282 773.505 C 757.952 773.735, 759.507 772.342, 760.738 770.409 C 761.969 768.477, 762.419 767.179, 761.738 767.524 C 761.057 767.870, 761.562 767.218, 762.861 766.076 C 764.159 764.934, 764.847 764, 764.388 764 C 763.930 764, 764.563 763.294, 765.794 762.432 C 767.026 761.569, 767.774 760.444, 767.458 759.932 C 767.141 759.419, 767.359 759, 767.941 759 C 768.523 759, 769 758.311, 769 757.469 C 769 756.626, 769.675 755.678, 770.500 755.362 C 771.325 755.045, 772 754.331, 772 753.774 C 772 753.218, 774.394 749.328, 777.320 745.131 C 802.326 709.260, 819.030 677.534, 830.087 644.909 C 836.718 625.348, 839.980 610.593, 839.991 600.116 C 840.002 589.611, 838.536 584.642, 834.037 579.939 C 829.031 574.705, 824.415 574.091, 814.916 577.394 C 790.162 586.003, 764.039 619.578, 744.811 667.500 C 738.910 682.204, 733.867 700.061, 721.718 749.256 C 718.763 761.221, 715.986 770.671, 715.548 770.256 C 715.110 769.840, 715.044 770.454, 715.402 771.621 C 716.016 773.621, 715.686 773.749, 709.592 773.881 C 706.038 773.958, 702.885 773.623, 702.585 773.137 C 702.284 772.651, 696.517 772.378, 689.769 772.530 C 681.235 772.722, 679.174 772.581, 683 772.066 L 688.500 771.326 681.750 771.163 C 678.038 771.073, 675 770.570, 675 770.045 C 675 769.520, 673.400 768.790, 671.444 768.424 C 668.549 767.880, 667.387 768.196, 665.194 770.120 C 663.712 771.420, 667.024 767.762, 672.554 761.992 C 678.083 756.221, 684.211 749.250, 686.172 746.500 C 701.504 724.988, 711.909 694.374, 714.889 662 C 716.127 648.549, 716.918 605.860, 715.834 611 C 715.350 613.294, 715.240 612.162, 715.514 607.712 C 715.744 603.979, 715.588 601.137, 715.167 601.397 C 714.747 601.656, 713.641 596.386, 712.710 589.685 C 709.867 569.221, 703.004 542.109, 696.210 524.500 C 694.725 520.650, 693.507 517.050, 693.505 516.500 C 693.502 515.950, 692.912 514.879, 692.192 514.121 C 691.473 513.363, 691.160 512.026, 691.495 511.152 C 691.831 510.277, 691.796 509.870, 691.418 510.249 C 691.040 510.627, 689.504 508.363, 688.005 505.218 C 684.844 498.585, 675.210 482.544, 670.434 475.963 C 668.623 473.467, 666.997 470.769, 666.821 469.966 C 666.644 469.164, 665.825 467.910, 665 467.179 C 664.175 466.449, 664.057 466.133, 664.739 466.478 C 665.553 466.889, 665.774 466.574, 665.384 465.558 C 665.057 464.707, 664.491 464.196, 664.125 464.422 C 663.760 464.649, 662.119 462.283, 660.480 459.167 L 657.500 453.500 666.500 453.589 C 676.077 453.683, 680.249 453.211, 679.568 452.110 C 679.338 451.737, 680.353 451.448, 681.825 451.466 C 683.529 451.488, 684.400 451.019, 684.225 450.176 C 684.074 449.447, 684.414 449.138, 684.981 449.488 C 685.548 449.839, 687.697 449.550, 689.756 448.846 C 694.593 447.194, 694.717 447.080, 692.971 445.880 C 691.831 445.096, 691.974 445.001, 693.609 445.457 C 696.276 446.201, 699.198 445.129, 698.330 443.725 C 697.917 443.057, 698.292 442.898, 699.336 443.299 C 700.251 443.650, 701 443.515, 701 443 C 701 442.485, 701.749 442.350, 702.664 442.701 C 703.775 443.128, 704.090 442.955, 703.612 442.181 C 703.152 441.438, 703.424 441.225, 704.371 441.589 C 705.185 441.901, 706.887 441.113, 708.173 439.827 C 709.453 438.547, 710.803 437.601, 711.173 437.724 C 712.225 438.075, 722.072 426.925, 721.511 426.018 C 721.236 425.573, 721.712 424.941, 722.569 424.612 C 723.426 424.283, 723.847 423.561, 723.504 423.007 C 723.162 422.453, 723.359 422, 723.941 422 C 724.523 422, 725 421.325, 725 420.500 C 725 419.675, 725.477 419, 726.059 419 C 726.641 419, 726.840 418.550, 726.500 418 C 726.160 417.450, 726.407 417, 727.048 417 C 727.691 417, 727.947 416.304, 727.618 415.448 C 727.291 414.594, 727.435 414.151, 727.939 414.463 C 729.128 415.197, 730.349 411.373, 729.410 409.854 C 728.988 409.172, 729.125 408.959, 729.741 409.340 C 731.455 410.399, 732.183 407.078, 732.527 396.631 C 732.705 391.204, 733.112 383.329, 733.429 379.131 C 733.844 373.657, 733.721 372.065, 732.996 373.500 C 732.239 374.997, 732.131 374.279, 732.569 370.643 C 732.985 367.196, 732.830 365.987, 732.037 366.477 C 731.262 366.956, 731.130 366.332, 731.606 364.435 C 732.087 362.516, 731.954 361.911, 731.157 362.403 C 730.427 362.854, 730.235 362.551, 730.618 361.552 C 730.946 360.698, 730.730 360, 730.138 360 C 729.547 360, 729.320 359.329, 729.635 358.508 C 729.961 357.658, 729.521 356.753, 728.609 356.404 C 727.731 356.066, 727.260 355.388, 727.565 354.895 C 727.869 354.403, 727.672 354, 727.126 354 C 726.581 354, 725.828 353.034, 725.454 351.854 C 725.079 350.674, 722.911 347.689, 720.636 345.220 L 716.500 340.731 716.454 325.615 C 716.406 309.668, 715.317 299.847, 714.001 303.500 C 713.495 304.907, 712.909 303.276, 712.026 298 C 711.336 293.875, 709.721 287.890, 708.436 284.701 C 707.151 281.512, 706.345 278.137, 706.644 277.201 C 707.040 275.965, 706.936 275.852, 706.263 276.787 C 705.585 277.728, 704.862 277.021, 703.568 274.151 C 702.595 271.993, 700.519 268.294, 698.954 265.930 C 697.389 263.567, 696.343 261.254, 696.629 260.792 C 696.915 260.329, 696.778 260.074, 696.324 260.225 C 695.871 260.376, 695.398 260.150, 695.274 259.722 C 695.149 259.295, 694.002 257.945, 692.725 256.722 C 691.447 255.500, 691.261 255.175, 692.311 256 C 694.014 257.337, 693.981 257.093, 692.012 253.750 C 689.682 249.796, 688.380 248.806, 689.381 251.750 C 689.708 252.713, 687.169 250.552, 683.738 246.949 C 671.867 234.483, 658.533 224.305, 642.500 215.474 C 638.650 213.353, 635.169 211.141, 634.765 210.559 C 634.361 209.976, 634.024 209.843, 634.015 210.263 C 634.007 210.682, 630.962 209.504, 627.250 207.645 C 618.317 203.171, 599.365 196.590, 584.500 192.799 C 573.665 190.036, 570.753 189.711, 554.500 189.453 C 544.600 189.295, 533.350 189.531, 529.500 189.977 M 534 220.075 C 536.278 220.873, 536.212 220.924, 533.250 220.649 C 531.462 220.482, 530 220.776, 530 221.300 C 530 221.845, 527.817 222.045, 524.915 221.766 C 522.119 221.497, 520.400 221.629, 521.096 222.059 C 522.811 223.119, 515.831 224.398, 513.087 223.528 C 511.808 223.122, 511 223.305, 511 224 C 511 224.702, 510.189 224.878, 508.875 224.460 C 507.551 224.040, 506.985 224.166, 507.373 224.794 C 507.751 225.405, 506.593 225.762, 504.430 225.701 C 502.470 225.645, 500.558 226.027, 500.183 226.550 C 499.807 227.072, 499.050 227.507, 498.500 227.516 C 496.152 227.555, 490.026 230.234, 490.507 231.011 C 490.796 231.479, 490.506 232.187, 489.862 232.585 C 489.131 233.037, 488.959 232.876, 489.405 232.155 C 490.197 230.873, 489.033 230.666, 486.498 231.639 C 485.187 232.142, 485.113 232.452, 486.150 233.093 C 487.079 233.667, 486.338 234.379, 483.641 235.506 C 481.536 236.385, 479.297 236.932, 478.666 236.722 C 478.034 236.511, 476.915 236.942, 476.178 237.679 C 475.442 238.416, 474.425 238.763, 473.919 238.450 C 473.414 238.138, 473 238.385, 473 239 C 473 239.615, 472.550 239.840, 472 239.500 C 471.450 239.160, 471 239.385, 471 240 C 471 240.615, 470.618 240.882, 470.151 240.594 C 469.685 240.305, 468.231 241.066, 466.921 242.285 C 465.611 243.503, 464.209 244.393, 463.805 244.262 C 463.402 244.131, 463.303 244.627, 463.586 245.364 C 463.869 246.101, 462.953 247.456, 461.550 248.375 C 459.185 249.925, 458.545 249.756, 458.906 247.676 C 458.985 247.222, 458.608 247.124, 458.068 247.458 C 457.529 247.791, 457.369 248.797, 457.712 249.693 C 458.205 250.976, 457.875 251.201, 456.156 250.751 C 454.631 250.352, 453.662 250.764, 452.937 252.118 C 452.366 253.184, 451.403 253.749, 450.795 253.373 C 450.129 252.962, 449.974 253.149, 450.405 253.845 C 450.797 254.480, 450.641 255, 450.059 255 C 449.477 255, 449 255.588, 449 256.307 C 449 257.714, 440.678 264, 438.816 264 C 438.197 264, 438.536 262.988, 439.570 261.750 C 440.603 260.512, 439.556 261.271, 437.243 263.435 C 434.930 265.599, 433.238 267.571, 433.483 267.816 C 434.190 268.523, 431.084 272.500, 429.826 272.500 C 429.202 272.500, 428.559 273.400, 428.398 274.500 C 428.237 275.600, 426.844 277.562, 425.303 278.860 C 423.761 280.158, 423.175 280.906, 424 280.523 C 424.825 280.140, 424.375 280.805, 423 282 C 421.625 283.195, 421.175 283.870, 422 283.500 C 422.825 283.130, 422.375 283.805, 421 285 C 419.625 286.195, 419.175 286.876, 420 286.513 C 420.992 286.076, 420.912 286.334, 419.766 287.275 C 418.812 288.057, 418.324 288.991, 418.682 289.349 C 419.040 289.707, 418.877 290, 418.319 290 C 417.760 290, 416.482 291.821, 415.479 294.047 C 414.475 296.273, 412.944 298.510, 412.077 299.017 C 410.710 299.816, 410.748 299.943, 412.357 299.970 C 413.634 299.991, 414.024 300.494, 413.607 301.582 C 413.273 302.452, 413 303.378, 413 303.641 C 413 303.903, 412.474 303.793, 411.830 303.395 C 411.043 302.909, 410.869 303.217, 411.299 304.336 C 411.650 305.251, 411.493 306, 410.950 306 C 410.381 306, 410.244 307.123, 410.627 308.649 C 411.136 310.679, 410.987 311.110, 409.988 310.493 C 409.021 309.895, 408.830 310.244, 409.249 311.844 C 409.559 313.030, 409.416 314, 408.931 314 C 408.447 314, 408.334 315.420, 408.681 317.155 C 409.093 319.216, 408.953 320.089, 408.278 319.672 C 406.896 318.818, 406.033 323.499, 406.551 329.040 C 406.849 332.240, 406.740 332.794, 406.164 331 C 405.538 329.051, 405.232 330.043, 404.776 335.494 C 404.013 344.615, 404.948 346.448, 409.836 345.418 C 411.851 344.994, 415.525 344.613, 418 344.573 C 421.971 344.509, 422.491 344.241, 422.426 342.300 C 422.385 341.090, 422.620 340.265, 422.948 340.468 C 423.275 340.670, 424.407 338.735, 425.463 336.168 C 427.110 332.162, 429.886 327.166, 435.269 318.523 C 435.946 317.436, 437.175 315.940, 438 315.199 C 439.333 314.001, 439.333 313.927, 438 314.527 C 437.175 314.899, 437.942 314.016, 439.705 312.564 C 441.468 311.113, 445.035 307.580, 447.631 304.713 C 450.228 301.846, 451.935 300.196, 451.426 301.047 C 450.917 301.898, 451.288 301.736, 452.250 300.686 C 453.212 299.637, 454 299.059, 454 299.402 C 454 299.745, 455.688 298.974, 457.750 297.689 C 459.813 296.405, 462.298 295.059, 463.273 294.700 C 465.086 294.030, 465.417 293.418, 466.394 288.917 C 467.092 285.702, 474.266 277.431, 478.058 275.470 C 482.698 273.071, 487.823 272.654, 490.568 274.452 C 492.806 275.919, 493.267 275.913, 496.227 274.383 C 501.923 271.437, 518.701 266.194, 526.407 264.950 C 535.018 263.561, 537.436 264.051, 536.502 266.995 C 536.023 268.502, 536.317 268.996, 537.683 268.985 C 539.084 268.973, 539.189 268.772, 538.143 268.110 C 537.040 267.411, 537.029 267.100, 538.084 266.448 C 538.845 265.978, 539.544 266.133, 539.774 266.822 C 540.183 268.050, 550.491 267.419, 552.500 266.042 C 553.050 265.666, 556.425 265.614, 560 265.929 L 566.500 266.500 566.491 270.093 C 566.484 273.032, 566.802 273.603, 568.241 273.227 C 569.213 272.973, 570 273.315, 570 273.992 C 570 274.810, 570.859 275.001, 572.584 274.568 C 574.452 274.099, 574.963 274.251, 574.427 275.117 C 573.908 275.958, 574.330 276.147, 575.844 275.751 C 577.030 275.441, 578 275.510, 578 275.905 C 578 276.299, 580.222 277.191, 582.938 277.887 C 585.654 278.583, 591.015 280.657, 594.851 282.496 C 598.688 284.335, 602.091 285.575, 602.414 285.253 C 602.736 284.930, 603 285.218, 603 285.892 C 603 286.566, 603.450 286.840, 604 286.500 C 604.550 286.160, 605 286.347, 605 286.915 C 605 287.484, 606.273 288.607, 607.828 289.411 C 609.384 290.216, 614.446 293.703, 619.078 297.160 C 623.710 300.617, 627.837 303.458, 628.250 303.473 C 628.663 303.488, 629.014 303.950, 629.031 304.500 C 629.089 306.352, 639.413 316, 641.338 316 C 642.824 316, 642.998 316.297, 642.126 317.348 C 641.274 318.375, 641.461 319.108, 642.911 320.419 C 644.721 322.058, 645.007 322.021, 648.728 319.671 C 653.058 316.938, 660.988 314, 664.035 314 C 665.116 314, 666 313.550, 666 313 C 666 312.450, 667.913 312.032, 670.250 312.070 C 673.542 312.125, 674.049 312.334, 672.500 313 C 670.619 313.808, 670.613 313.864, 672.390 313.930 C 673.429 313.968, 674.791 313.301, 675.416 312.446 C 676.601 310.825, 680.454 311.457, 679.435 313.105 C 679.131 313.597, 679.385 314, 680 314 C 680.615 314, 680.829 314.468, 680.475 315.040 C 680.057 315.717, 680.823 315.863, 682.666 315.459 C 684.836 314.984, 685.148 315.088, 684 315.904 C 682.667 316.851, 682.667 316.984, 684 317.103 C 684.825 317.177, 685.871 317.172, 686.324 317.094 C 686.778 317.015, 686.894 317.362, 686.583 317.866 C 686.272 318.369, 687.132 319.512, 688.495 320.405 L 690.972 322.028 690.499 316.264 C 690.238 313.094, 689.756 307.012, 689.427 302.750 L 688.829 295 684.482 295 C 681.003 295, 680.007 294.598, 679.495 292.985 C 679.138 291.860, 678.372 291.270, 677.758 291.650 C 677.053 292.085, 676.889 291.733, 677.299 290.664 C 677.650 289.749, 677.515 289, 677 289 C 676.485 289, 676.299 288.385, 676.587 287.634 C 677.228 285.964, 671.058 271.846, 669.979 272.513 C 669.029 273.100, 667.798 270.135, 668.513 268.979 C 668.799 268.516, 668.506 267.813, 667.862 267.415 C 667.085 266.935, 666.936 267.164, 667.420 268.095 C 667.820 268.868, 667.430 268.613, 666.552 267.529 C 665.674 266.444, 665.171 264.996, 665.434 264.311 C 665.697 263.625, 665.413 262.755, 664.802 262.378 C 664.082 261.933, 663.976 262.152, 664.500 263 C 665.008 263.822, 664.917 264.066, 664.255 263.658 C 663.676 263.299, 662.222 261.347, 661.025 259.318 C 659.828 257.290, 659.463 256.051, 660.214 256.565 C 660.964 257.079, 660.418 256.375, 659 255 C 657.582 253.625, 657.115 252.950, 657.961 253.500 C 659.298 254.369, 659.321 254.272, 658.137 252.761 C 657.387 251.805, 656.355 251.281, 655.843 251.597 C 654.605 252.362, 651.864 250.030, 652.600 248.838 C 652.944 248.282, 653.851 248.372, 654.839 249.060 C 655.753 249.697, 654.069 247.934, 651.098 245.144 C 648.127 242.353, 645.304 240.312, 644.824 240.609 C 644.343 240.906, 644.074 240.553, 644.225 239.824 C 644.376 239.096, 643.938 238.612, 643.250 238.750 C 642.563 238.887, 642 238.567, 642 238.037 C 642 236.771, 632.184 230.149, 624 225.894 C 615.576 221.514, 615.583 221.517, 616.525 223.040 C 617.102 223.974, 616.859 224.160, 615.664 223.701 C 614.577 223.284, 614 223.572, 614 224.531 C 614 226.421, 613.043 226.370, 604 224 C 596.163 221.946, 593.095 221.537, 596.500 223 L 598.500 223.859 596.500 223.866 C 593.310 223.875, 582.290 221.191, 584.500 220.943 C 585.600 220.819, 584.025 220.376, 581 219.958 C 573.157 218.874, 530.872 218.979, 534 220.075 M 687.360 554 C 687.360 559.225, 687.529 561.362, 687.735 558.750 C 687.941 556.138, 687.941 551.862, 687.735 549.250 C 687.529 546.638, 687.360 548.775, 687.360 554 M 271.500 602 C 272.353 603.650, 273.799 605, 274.713 605 C 275.992 605, 275.713 604.310, 273.500 602 C 271.919 600.350, 270.473 599, 270.287 599 C 270.101 599, 270.647 600.350, 271.500 602 M 717.355 633.500 C 717.352 638.450, 717.521 640.601, 717.731 638.280 C 717.940 635.959, 717.943 631.909, 717.736 629.280 C 717.530 626.651, 717.358 628.550, 717.355 633.500 M 519 675.051 C 516.525 675.491, 511.125 675.892, 507 675.941 C 502.875 675.990, 498.825 676.467, 498 677 C 496.757 677.803, 496.843 677.970, 498.500 677.976 C 505.794 678, 528.608 675.792, 529.416 674.984 C 530.580 673.820, 525.742 673.851, 519 675.051 M 344.250 800.780 C 341.660 801.193, 341.387 802.246, 343.430 803.942 C 344.576 804.893, 345.089 804.702, 346.011 802.979 C 347.359 800.461, 347.233 800.303, 344.250 800.780" stroke="none" fill="#fad5d0" fill-rule="evenodd"/></svg>